<svg xmlns="http://www.w3.org/2000/svg" xmlns:xlink="http://www.w3.org/1999/xlink" width="2500" zoomAndPan="magnify" viewBox="0 0 1874.88 359.999987" height="480" preserveAspectRatio="xMidYMid meet" version="1.0"><defs><g/></defs><path fill="#f42f2f" d="M 290.167969 146.332031 C 289.730469 141.765625 289.304688 138.664062 288.480469 133.957031 C 287.824219 130.207031 286.996094 126.492188 286 122.808594 C 284.066406 115.753906 281.488281 108.941406 278.265625 102.375 C 275.039062 95.808594 271.226562 89.601562 266.824219 83.757812 C 248.90625 59.902344 222.875 42.832031 194.027344 33.980469 C 186.707031 31.757812 179.25 30.164062 171.660156 29.203125 C 163.949219 28.199219 156.222656 27.59375 148.449219 27.046875 C 146.785156 26.933594 145.382812 28.570312 145.402344 30.09375 C 145.402344 30.695312 145.574219 31.238281 145.925781 31.722656 C 136.390625 31.617188 126.953125 32.527344 117.617188 34.460938 C 108.28125 36.390625 99.261719 39.296875 90.554688 43.179688 C 65.746094 54.285156 44.746094 73.140625 30.402344 95.675781 C 25.945312 102.730469 22.160156 110.132812 19.046875 117.875 C 15.933594 125.617188 13.542969 133.574219 11.871094 141.75 C 9.566406 147.742188 7.671875 153.863281 6.1875 160.109375 C 4.703125 166.355469 3.644531 172.671875 3.007812 179.0625 C 2.371094 185.449219 2.164062 191.851562 2.382812 198.265625 C 2.605469 204.683594 3.257812 211.054688 4.332031 217.386719 C 8.976562 244.503906 22.363281 269.9375 41.789062 289.839844 C 61.886719 310.425781 88.675781 324.53125 117.601562 328.6875 C 148.046875 333.066406 179.421875 327.222656 205.277344 310.707031 C 209.144531 308.238281 212.875 305.570312 216.460938 302.710938 C 226.039062 296.832031 234.820312 289.949219 242.816406 282.058594 C 250.808594 274.167969 257.804688 265.476562 263.796875 255.984375 C 280.273438 230.074219 288.9375 199.886719 290.59375 169.550781 C 291.03125 161.800781 290.890625 154.0625 290.167969 146.332031 Z M 52.085938 85.242188 C 56.367188 80.402344 60.96875 75.890625 65.886719 71.703125 C 66.992188 70.765625 68.113281 69.84375 69.25 68.9375 L 70.292969 68.125 L 70.359375 68.074219 L 70.546875 67.933594 C 71.242188 67.40625 71.9375 66.882812 72.632812 66.371094 C 75.210938 64.484375 77.859375 62.695312 80.574219 60.996094 C 86.023438 57.613281 91.683594 54.625 97.554688 52.042969 L 97.695312 51.980469 L 97.832031 51.921875 L 99.046875 51.402344 C 99.726562 51.128906 100.402344 50.878906 101.085938 50.597656 C 102.648438 49.988281 104.230469 49.414062 105.824219 48.882812 C 109.03125 47.789062 112.28125 46.832031 115.570312 46.015625 C 118.859375 45.203125 122.171875 44.523438 125.507812 43.980469 C 125.800781 43.933594 127.296875 43.722656 127.222656 43.726562 C 127.828125 43.644531 128.4375 43.566406 129.042969 43.492188 C 130.878906 43.269531 132.71875 43.089844 134.558594 42.972656 C 141.328125 42.457031 148.09375 42.484375 154.859375 43.054688 C 155.707031 43.121094 156.542969 43.199219 157.390625 43.289062 L 158.535156 43.414062 C 157.09375 43.257812 158.640625 43.414062 158.875 43.457031 C 160.546875 43.667969 162.21875 43.914062 163.890625 44.199219 C 167.300781 44.773438 170.679688 45.484375 174.03125 46.335938 C 177.382812 47.183594 180.683594 48.171875 183.9375 49.296875 C 185.382812 49.816406 186.816406 50.339844 188.246094 50.859375 L 188.394531 50.921875 L 188.59375 51.003906 C 189.023438 51.183594 189.445312 51.347656 189.867188 51.527344 C 190.644531 51.847656 191.429688 52.1875 192.191406 52.53125 C 188.246094 51.59375 184.25 50.863281 180.253906 50.3125 C 166.304688 48.371094 152.34375 48.289062 138.375 50.066406 C 131.496094 50.957031 124.71875 52.335938 118.039062 54.203125 C 111.457031 56.03125 104.890625 58.039062 98.503906 60.449219 C 94.199219 62.074219 89.96875 63.886719 85.820312 65.882812 C 80.757812 68.007812 75.820312 70.394531 71.011719 73.039062 C 67.984375 74.691406 65.054688 76.496094 62.222656 78.457031 C 59.21875 80.539062 56.308594 82.714844 53.46875 84.984375 C 52.152344 86.027344 50.855469 87.097656 49.574219 88.191406 C 50.386719 87.199219 51.226562 86.214844 52.085938 85.242188 Z M 117.984375 317.714844 C 110.589844 316.511719 103.355469 314.671875 96.285156 312.195312 C 95.5 311.921875 94.722656 311.640625 93.941406 311.347656 L 92.78125 310.910156 L 92.191406 310.675781 C 90.453125 309.980469 88.734375 309.242188 87.035156 308.457031 C 84.039062 307.070312 81.097656 305.578125 78.21875 303.980469 C 75.335938 302.382812 72.554688 300.691406 69.875 298.902344 C 68.519531 298.007812 67.183594 297.085938 65.867188 296.140625 L 65.574219 295.929688 C 65.746094 296.050781 65 295.503906 64.871094 295.410156 C 64.160156 294.890625 63.460938 294.367188 62.785156 293.800781 C 57.660156 289.8125 52.855469 285.472656 48.367188 280.785156 C 46.039062 278.355469 43.804688 275.832031 41.660156 273.222656 L 41.660156 273.261719 L 41.628906 273.21875 C 41.554688 273.136719 41.414062 272.957031 41.351562 272.875 L 40.828125 272.25 C 40.375 271.671875 39.921875 271.09375 39.472656 270.511719 C 38.40625 269.121094 37.363281 267.703125 36.34375 266.25 C 32.625 260.976562 29.300781 255.460938 26.375 249.703125 C 25.648438 248.273438 24.953125 246.828125 24.292969 245.367188 C 24.167969 245.101562 24.046875 244.847656 23.925781 244.570312 C 24.480469 245.769531 23.863281 244.425781 23.785156 244.242188 C 23.4375 243.441406 23.089844 242.636719 22.742188 241.824219 C 21.488281 238.796875 20.347656 235.722656 19.324219 232.609375 C 17.375 226.597656 15.867188 220.480469 14.808594 214.25 C 17.328125 223.109375 20.617188 231.675781 24.679688 239.945312 C 28.742188 248.210938 33.511719 256.054688 38.984375 263.464844 C 56.535156 287.136719 80.695312 305.554688 109.234375 314.910156 C 113.09375 316.171875 117.007812 317.257812 120.976562 318.164062 C 119.972656 318.027344 118.972656 317.878906 117.984375 317.714844 Z M 262.050781 177.007812 C 262.011719 180.414062 261.871094 183.824219 261.640625 187.230469 C 261.515625 189.105469 261.359375 190.976562 261.179688 192.84375 C 261.097656 193.691406 261.007812 194.542969 260.914062 195.390625 C 260.859375 195.914062 260.796875 196.40625 260.738281 196.917969 C 260.738281 197.042969 260.726562 197.140625 260.707031 197.214844 C 260.707031 197.277344 260.707031 197.371094 260.664062 197.496094 C 259.664062 205.121094 258.195312 212.660156 256.253906 220.101562 C 255.292969 223.730469 254.214844 227.324219 253.015625 230.886719 C 252.441406 232.585938 251.839844 234.273438 251.210938 235.953125 C 250.878906 236.832031 250.542969 237.707031 250.195312 238.554688 C 250.070312 238.875 249.945312 239.191406 249.816406 239.507812 C 249.769531 239.640625 249.34375 240.644531 249.292969 240.832031 C 246.4375 247.574219 243.097656 254.070312 239.277344 260.320312 C 237.539062 263.171875 235.691406 265.957031 233.730469 268.679688 C 233.207031 269.421875 232.65625 270.15625 232.109375 270.890625 L 231.5625 271.621094 L 231.078125 272.292969 C 230.066406 273.578125 229.039062 274.851562 227.980469 276.109375 C 223.597656 281.328125 218.851562 286.1875 213.734375 290.6875 C 212.53125 291.730469 211.316406 292.757812 210.085938 293.78125 C 207.285156 295.464844 204.421875 297.042969 201.5 298.519531 C 199.988281 299.277344 198.464844 300.007812 196.921875 300.710938 L 195.199219 301.46875 L 194.449219 301.792969 L 192.738281 302.484375 C 186.417969 305 179.925781 306.960938 173.265625 308.363281 C 171.585938 308.710938 169.898438 309.027344 168.203125 309.308594 L 166.972656 309.5 L 166.753906 309.535156 L 166.503906 309.566406 C 165.519531 309.691406 164.53125 309.824219 163.546875 309.925781 C 159.929688 310.320312 156.292969 310.550781 152.644531 310.609375 C 148.996094 310.667969 145.355469 310.566406 141.726562 310.304688 C 140.03125 310.1875 138.34375 310.027344 136.660156 309.839844 L 135.816406 309.734375 L 134.828125 309.597656 C 133.761719 309.453125 132.695312 309.292969 131.632812 309.113281 C 124.335938 307.914062 117.191406 306.109375 110.199219 303.695312 C 108.636719 303.171875 107.070312 302.574219 105.507812 301.984375 L 105.25 301.890625 L 105.011719 301.792969 C 104.550781 301.605469 104.089844 301.417969 103.636719 301.226562 C 102.71875 300.847656 101.804688 300.449219 100.898438 300.050781 C 97.570312 298.570312 94.316406 296.957031 91.128906 295.207031 C 88.054688 293.519531 85.058594 291.714844 82.136719 289.785156 C 80.75 288.859375 79.359375 287.90625 77.96875 286.929688 L 77.054688 286.273438 L 76.894531 286.152344 C 76.164062 285.601562 75.433594 285.046875 74.707031 284.484375 C 69.285156 280.269531 64.199219 275.675781 59.453125 270.707031 C 57.136719 268.277344 54.910156 265.78125 52.769531 263.214844 L 52.367188 262.730469 C 52.847656 263.308594 52.039062 262.324219 51.933594 262.210938 C 51.457031 261.617188 50.984375 261.019531 50.523438 260.417969 C 49.398438 258.980469 48.308594 257.519531 47.246094 256.035156 C 43.351562 250.582031 39.835938 244.894531 36.707031 238.96875 C 35.921875 237.5 35.164062 236.015625 34.433594 234.515625 C 34.085938 233.839844 33.757812 233.15625 33.445312 232.46875 C 33.253906 232.058594 33.0625 231.648438 32.875 231.234375 C 32.835938 231.15625 32.644531 230.714844 32.550781 230.523438 C 31.167969 227.398438 29.875 224.191406 28.707031 220.960938 C 26.175781 213.96875 24.179688 206.824219 22.722656 199.53125 C 22.390625 197.894531 22.089844 196.253906 21.820312 194.609375 C 21.761719 194.265625 21.710938 193.929688 21.652344 193.570312 C 21.652344 193.4375 21.523438 192.683594 21.507812 192.589844 C 21.367188 191.601562 21.234375 190.605469 21.117188 189.617188 C 20.675781 185.976562 20.367188 182.332031 20.191406 178.683594 C 19.84375 171.359375 20.050781 164.050781 20.804688 156.757812 C 20.855469 156.234375 20.90625 155.765625 20.964844 155.273438 L 21.078125 154.378906 C 21.167969 153.679688 21.261719 152.976562 21.367188 152.292969 C 21.644531 150.40625 21.960938 148.523438 22.316406 146.644531 C 22.8125 144.015625 23.382812 141.402344 24.03125 138.804688 C 24.394531 137.980469 24.761719 137.15625 25.140625 136.335938 C 27.96875 130.214844 31.21875 124.328125 34.894531 118.671875 C 35.820312 117.265625 36.769531 115.875 37.746094 114.507812 C 38.179688 113.902344 38.613281 113.304688 39.058594 112.707031 L 39.832031 111.601562 L 40.289062 111.003906 C 42.261719 108.457031 44.402344 106.0625 46.503906 103.621094 L 47.214844 102.699219 C 46.980469 103.054688 47.039062 103.015625 47.371094 102.605469 C 47.695312 102.296875 47.976562 101.9375 48.28125 101.617188 C 48.800781 101.070312 49.292969 100.527344 49.808594 99.992188 C 50.988281 98.753906 52.195312 97.539062 53.425781 96.347656 C 55.832031 94.015625 58.316406 91.769531 60.886719 89.609375 C 65.804688 85.519531 70.933594 81.710938 76.273438 78.183594 C 87.355469 70.804688 99.246094 65.101562 111.945312 61.082031 C 117.546875 59.300781 123.238281 57.863281 129.015625 56.773438 C 130.40625 56.578125 131.796875 56.382812 133.1875 56.195312 C 136.226562 55.789062 139.28125 55.460938 142.34375 55.210938 C 144.949219 55.078125 147.53125 55.019531 150.105469 55.015625 C 150.359375 55.023438 150.5625 54.929688 150.714844 54.726562 C 158.273438 54.476562 165.816406 54.71875 173.34375 55.460938 C 187.164062 56.84375 201.058594 60.222656 213.222656 66.917969 C 217.039062 69.023438 220.628906 71.453125 224 74.207031 L 224.101562 74.304688 C 226.410156 76.585938 228.617188 78.960938 230.722656 81.429688 C 231.140625 81.949219 231.554688 82.417969 231.96875 82.917969 C 232.046875 83.023438 232.839844 84.007812 232.96875 84.167969 C 234.03125 85.527344 235.066406 86.90625 236.070312 88.300781 C 239.757812 93.453125 243.042969 98.84375 245.9375 104.476562 C 246.660156 105.882812 247.355469 107.304688 248.019531 108.738281 C 248.292969 109.304688 248.542969 109.878906 248.8125 110.453125 C 248.871094 110.570312 248.929688 110.707031 248.964844 110.785156 C 249.167969 111.25 249.371094 111.710938 249.570312 112.175781 C 250.820312 115.105469 251.976562 118.070312 253.03125 121.074219 C 255.175781 127.183594 256.9375 133.398438 258.3125 139.726562 C 259.015625 142.933594 259.601562 146.15625 260.132812 149.394531 C 260.132812 149.4375 260.132812 149.5 260.160156 149.5625 L 260.300781 150.539062 C 260.398438 151.257812 260.496094 151.980469 260.59375 152.707031 C 260.816406 154.441406 261.007812 156.179688 261.179688 157.914062 C 261.816406 164.261719 262.105469 170.625 262.050781 177.007812 Z M 280.023438 171.457031 C 279.867188 173.328125 279.675781 175.199219 279.460938 177.0625 C 279.460938 177.109375 279.335938 178.066406 279.335938 178.105469 C 279.308594 178.324219 279.277344 178.542969 279.253906 178.761719 C 279.117188 179.769531 278.972656 180.78125 278.820312 181.792969 C 278.257812 185.542969 277.578125 189.277344 276.78125 192.992188 C 275.253906 200.015625 273.382812 206.945312 271.160156 213.78125 C 270.046875 217.199219 268.832031 220.582031 267.511719 223.929688 C 267.214844 224.691406 266.914062 225.449219 266.601562 226.207031 C 266.5625 226.300781 266.238281 227.074219 266.222656 227.113281 C 266.09375 227.425781 265.957031 227.738281 265.828125 228.042969 C 265.644531 228.460938 265.460938 228.871094 265.273438 229.28125 C 268.425781 218.820312 270.640625 208.164062 271.917969 197.3125 C 273.632812 183.410156 273.742188 169.492188 272.246094 155.5625 C 269.300781 128.910156 260.566406 102.335938 244.203125 80.535156 C 235.886719 69.359375 225.9375 59.902344 214.351562 52.160156 C 220.457031 55.261719 226.3125 58.785156 231.910156 62.730469 L 232.847656 63.402344 L 233.109375 63.589844 L 233.367188 63.777344 C 233.980469 64.242188 234.59375 64.699219 235.207031 65.167969 C 236.667969 66.292969 238.109375 67.445312 239.523438 68.628906 C 242.117188 70.796875 244.617188 73.054688 247.03125 75.398438 C 249.441406 77.746094 251.753906 80.1875 253.964844 82.726562 C 254.464844 83.300781 254.960938 83.882812 255.449219 84.464844 L 256.160156 85.324219 L 256.71875 86.011719 C 257.761719 87.324219 258.777344 88.65625 259.761719 90.003906 C 263.917969 95.625 267.464844 101.609375 270.398438 107.949219 C 273.335938 114.292969 275.601562 120.863281 277.199219 127.664062 C 277.597656 129.3125 277.964844 130.964844 278.304688 132.621094 C 278.5 133.621094 278.6875 134.617188 278.867188 135.621094 L 279.039062 136.621094 C 279.09375 136.953125 279.148438 137.292969 279.199219 137.625 C 279.199219 137.777344 279.242188 137.890625 279.257812 137.976562 C 279.777344 141.621094 280.136719 145.3125 280.355469 149 C 280.777344 156.5 280.667969 163.992188 280.023438 171.476562 Z M 280.023438 171.457031 " fill-opacity="1" fill-rule="nonzero"/><path fill="#f42f2f" d="M 41.351562 272.847656 L 41.644531 273.214844 Z M 41.351562 272.847656 " fill-opacity="1" fill-rule="nonzero"/><path fill="#f42f2f" d="M 144.066406 116.394531 L 143.902344 116.226562 C 143.984375 116.460938 144.117188 116.65625 144.308594 116.816406 C 144.234375 116.691406 144.160156 116.566406 144.097656 116.445312 Z M 144.066406 116.394531 " fill-opacity="1" fill-rule="nonzero"/><path fill="#f42f2f" d="M 190.730469 169.488281 C 190.269531 166.441406 188.125 164.390625 185.199219 163.394531 C 180.964844 161.964844 175.507812 163.707031 171.152344 164.4375 L 165.21875 165.414062 L 162.71875 126.078125 C 162.144531 117.066406 160.597656 107.128906 151.910156 102.039062 C 147.097656 99.226562 140.710938 98.992188 135.570312 101.042969 C 130.214844 103.179688 126.183594 106.683594 123.09375 111.421875 C 120.414062 115.492188 118.8125 120.214844 117.132812 124.734375 C 115.394531 129.441406 113.710938 134.171875 112.078125 138.929688 C 108.875 148.300781 105.929688 157.765625 103.238281 167.328125 C 102.425781 170.222656 101.632812 173.125 100.867188 176.03125 L 92.25 177.453125 C 84.34375 178.761719 76.449219 180.121094 68.554688 181.464844 C 67.90625 181.496094 67.269531 181.601562 66.648438 181.785156 L 66.519531 181.785156 C 65.773438 182.007812 65.078125 182.332031 64.425781 182.75 C 63.773438 183.171875 63.195312 183.675781 62.6875 184.261719 C 62.179688 184.847656 61.761719 185.492188 61.4375 186.199219 C 61.117188 186.902344 60.898438 187.636719 60.78125 188.402344 C 60.609375 189.625 60.726562 190.816406 61.136719 191.980469 C 61.542969 193.144531 62.199219 194.148438 63.097656 194.996094 C 65.355469 197.136719 68.050781 197.394531 71 196.921875 C 79.5625 195.558594 88.125 194.183594 96.683594 192.796875 C 96.144531 195.152344 95.621094 197.507812 95.121094 199.863281 C 93.921875 205.394531 92.808594 210.949219 91.777344 216.527344 C 91.257812 219.3125 90.859375 222.113281 90.449219 224.917969 C 90.03125 228.140625 89.894531 231.375 90.039062 234.621094 C 90.050781 235.03125 90.101562 235.441406 90.191406 235.84375 C 90.277344 236.246094 90.402344 236.640625 90.558594 237.023438 C 90.714844 237.402344 90.90625 237.769531 91.128906 238.113281 C 91.351562 238.460938 91.605469 238.789062 91.886719 239.089844 C 92.167969 239.390625 92.472656 239.667969 92.804688 239.914062 C 93.136719 240.164062 93.484375 240.378906 93.855469 240.5625 C 94.226562 240.75 94.609375 240.898438 95.003906 241.015625 C 95.402344 241.132812 95.804688 241.214844 96.214844 241.257812 C 99.8125 241.6875 102.726562 239.53125 103.859375 236.261719 C 104.609375 234.089844 105.527344 231.921875 105.992188 229.671875 C 106.480469 227.285156 106.941406 224.886719 107.410156 222.492188 C 108.324219 217.808594 109.171875 213.148438 110.140625 208.488281 C 111.433594 202.289062 112.835938 196.113281 114.347656 189.960938 L 149.84375 184.175781 C 149.84375 184.550781 149.890625 184.925781 149.917969 185.300781 L 153.859375 247.53125 C 153.546875 248.882812 153.546875 250.230469 153.859375 251.578125 L 154.445312 254.152344 C 155.339844 258.066406 159.792969 260.367188 163.621094 259.820312 C 167.445312 259.273438 170.957031 255.828125 170.699219 251.796875 C 169.210938 228.363281 167.71875 204.933594 166.230469 181.503906 L 173.308594 180.332031 L 179.851562 179.265625 C 182.457031 178.839844 185.0625 178.566406 187.195312 176.917969 C 189.679688 175.015625 191.222656 172.726562 190.730469 169.488281 Z M 137.21875 170.007812 L 118.777344 173.054688 C 123.070312 157.636719 128.039062 142.40625 133.683594 127.355469 C 134.03125 126.40625 134.394531 125.460938 134.773438 124.519531 C 134.773438 124.507812 134.773438 124.496094 134.773438 124.484375 C 134.753906 124.527344 134.734375 124.574219 134.714844 124.613281 L 134.792969 124.441406 C 134.851562 124.300781 134.945312 124.097656 135 123.96875 L 135.257812 123.402344 C 135.679688 122.507812 136.128906 121.621094 136.621094 120.761719 C 136.894531 120.289062 137.175781 119.820312 137.476562 119.359375 C 137.640625 119.117188 138.230469 118.421875 138.285156 118.34375 C 138.703125 117.898438 139.125 117.457031 139.578125 117.035156 L 139.796875 116.820312 C 140.121094 116.632812 140.527344 116.460938 140.726562 116.355469 L 140.996094 116.207031 L 141.261719 116.082031 C 141.554688 115.996094 141.878906 115.929688 141.9375 115.910156 C 141.992188 115.886719 142.304688 115.839844 142.554688 115.800781 L 142.609375 115.800781 L 142.878906 115.746094 L 142.960938 115.746094 L 143.082031 115.777344 L 143.375 115.777344 C 143.359375 115.796875 143.339844 115.816406 143.316406 115.832031 L 143.546875 115.886719 L 143.613281 115.886719 L 143.640625 115.914062 L 143.746094 116.039062 C 143.792969 116.09375 143.84375 116.140625 143.894531 116.191406 C 143.878906 116.15625 143.867188 116.121094 143.859375 116.085938 L 143.941406 116.136719 C 143.972656 116.191406 144.015625 116.261719 144.0625 116.355469 C 144.210938 116.484375 144.347656 116.628906 144.46875 116.785156 C 144.414062 116.824219 144.359375 116.824219 144.304688 116.785156 C 144.414062 116.972656 144.527344 117.152344 144.632812 117.304688 L 144.664062 117.351562 C 145.183594 118.953125 145.464844 120.558594 145.886719 122.171875 C 145.308594 119.960938 145.886719 122.4375 145.941406 123.105469 C 146.035156 124.144531 146.097656 125.1875 146.164062 126.230469 C 147.046875 140.171875 147.929688 154.117188 148.8125 168.0625 Z M 137.21875 170.007812 " fill-opacity="1" fill-rule="nonzero"/><path fill="#f42f2f" d="M 142.628906 115.792969 C 142.828125 115.886719 143.152344 115.972656 143.324219 115.847656 L 143.089844 115.789062 Z M 142.628906 115.792969 " fill-opacity="1" fill-rule="nonzero"/><path fill="#f42f2f" d="M 134.777344 124.484375 C 135.121094 123.75 135.105469 123.761719 135.007812 123.964844 C 134.90625 124.167969 134.867188 124.28125 134.796875 124.4375 C 134.796875 124.457031 134.789062 124.472656 134.777344 124.484375 Z M 134.777344 124.484375 " fill-opacity="1" fill-rule="nonzero"/><path fill="#f42f2f" d="M 232.691406 116.894531 C 230.714844 113.992188 227.574219 113 224.140625 113.628906 C 219.011719 114.574219 213.882812 115.519531 208.761719 116.472656 C 208.726562 115.949219 208.6875 115.429688 208.65625 114.910156 C 208.519531 112.828125 208.382812 110.753906 208.246094 108.691406 C 208.0625 105.894531 208.1875 102.964844 206.5625 100.507812 C 203.851562 96.441406 196.867188 95.863281 194.445312 100.664062 C 193.105469 103.3125 193.25 105.6875 193.402344 108.515625 C 193.515625 110.597656 193.632812 112.671875 193.75 114.730469 L 194 119.242188 C 188.660156 120.242188 183.316406 121.253906 177.972656 122.277344 C 174.1875 123.003906 171.757812 127.710938 172.953125 131.160156 C 174.339844 135.152344 178 136.757812 182.070312 136.050781 C 186.328125 135.308594 190.578125 134.5625 194.828125 133.804688 C 195.175781 139.511719 195.523438 145.21875 195.871094 150.929688 C 196.054688 154.054688 198.183594 157.242188 201.5 157.933594 C 204.484375 158.558594 208.664062 157.496094 209.960938 154.457031 C 210.117188 154.074219 210.277344 153.699219 210.441406 153.320312 C 211.25 151.425781 211.738281 149.71875 211.125 147.65625 C 211.011719 147.273438 210.863281 146.90625 210.679688 146.550781 C 210.367188 141.410156 210.050781 136.269531 209.726562 131.132812 L 223.574219 128.582031 C 224.144531 128.714844 224.722656 128.78125 225.308594 128.78125 C 227.828125 128.75 229.882812 127.390625 231.632812 125.785156 C 233.964844 123.660156 234.46875 119.5 232.691406 116.894531 Z M 232.691406 116.894531 " fill-opacity="1" fill-rule="nonzero"/><g fill="#343a40" fill-opacity="1"><g transform="translate(1131.568104, 265.582532)"><g><path d="M 47.359375 -178.375 C 66.429688 -178.375 78.289062 -178.289062 82.9375 -178.125 C 114.1875 -177.007812 137.820312 -168.554688 153.84375 -152.765625 C 169.875 -136.984375 177.890625 -115.953125 177.890625 -89.671875 C 177.890625 -72.035156 174.28125 -56.488281 167.0625 -43.03125 C 159.851562 -29.570312 149.117188 -19.035156 134.859375 -11.421875 C 120.597656 -3.804688 103.207031 0 82.6875 0 L 19.46875 0 C 17.0625 0 15.296875 -0.554688 14.171875 -1.671875 C 13.054688 -2.796875 12.5 -4.644531 12.5 -7.21875 L 12.5 -172.359375 C 12.5 -174.597656 12.976562 -176.160156 13.9375 -177.046875 C 14.90625 -177.929688 16.585938 -178.375 18.984375 -178.375 Z M 69.46875 -140.625 C 68.664062 -140.625 68.0625 -140.382812 67.65625 -139.90625 C 67.257812 -139.425781 67.0625 -138.546875 67.0625 -137.265625 L 67.0625 -41.34375 C 67.0625 -39.90625 67.300781 -38.941406 67.78125 -38.453125 C 68.269531 -37.972656 69.15625 -37.734375 70.4375 -37.734375 L 72.109375 -37.734375 C 87.984375 -37.734375 100.046875 -41.859375 108.296875 -50.109375 C 116.546875 -58.367188 120.671875 -71.796875 120.671875 -90.390625 C 120.671875 -106.410156 117.546875 -118.347656 111.296875 -126.203125 C 105.046875 -134.054688 95.910156 -138.546875 83.890625 -139.671875 Z M 69.46875 -140.625 "/></g></g></g><g fill="#343a40" fill-opacity="1"><g transform="translate(1316.90723, 265.582532)"><g><path d="M 12.5 -172.84375 C 12.5 -176.53125 14.019531 -178.375 17.0625 -178.375 L 146.875 -178.375 C 149.757812 -178.375 151.203125 -176.691406 151.203125 -173.328125 L 150.96875 -145.4375 C 150.96875 -141.113281 148.882812 -138.953125 144.71875 -138.953125 L 72.59375 -138.953125 C 68.90625 -138.953125 67.0625 -137.425781 67.0625 -134.375 L 67.0625 -113.9375 C 67.0625 -112.34375 67.460938 -111.101562 68.265625 -110.21875 C 69.066406 -109.332031 70.109375 -108.890625 71.390625 -108.890625 L 114.671875 -108.890625 C 118.035156 -108.890625 119.71875 -107.289062 119.71875 -104.09375 L 119.71875 -74.28125 C 119.71875 -71.550781 118.273438 -70.1875 115.390625 -70.1875 L 70.921875 -70.1875 C 69.796875 -70.1875 68.867188 -69.863281 68.140625 -69.21875 C 67.421875 -68.582031 67.0625 -67.785156 67.0625 -66.828125 L 67.0625 -42.796875 C 67.0625 -41.503906 67.257812 -40.617188 67.65625 -40.140625 C 68.0625 -39.660156 68.828125 -39.421875 69.953125 -39.421875 L 148.078125 -39.421875 C 151.609375 -39.421875 153.375 -37.898438 153.375 -34.859375 L 153.375 -5.28125 C 153.375 -3.6875 152.890625 -2.40625 151.921875 -1.4375 C 150.960938 -0.476562 149.519531 0 147.59375 0 L 18.984375 0 C 16.585938 0 14.90625 -0.476562 13.9375 -1.4375 C 12.976562 -2.40625 12.5 -3.929688 12.5 -6.015625 Z M 12.5 -172.84375 "/></g></g></g><g fill="#343a40" fill-opacity="1"><g transform="translate(1478.207562, 265.582532)"><g><path d="M 92.546875 -180.78125 C 105.847656 -180.78125 117.867188 -178.414062 128.609375 -173.6875 C 139.347656 -168.957031 148.160156 -162.425781 155.046875 -154.09375 C 161.941406 -145.757812 166.429688 -136.222656 168.515625 -125.484375 C 168.992188 -123.554688 169.234375 -122.035156 169.234375 -120.921875 C 169.234375 -119.472656 168.953125 -118.507812 168.390625 -118.03125 C 167.828125 -117.550781 166.828125 -117.226562 165.390625 -117.0625 L 123.328125 -114.421875 C 121.722656 -114.421875 120.675781 -114.703125 120.1875 -115.265625 C 119.707031 -115.828125 119.226562 -117.070312 118.75 -119 C 117.3125 -126.6875 114.664062 -132.734375 110.8125 -137.140625 C 106.96875 -141.546875 101.363281 -143.75 94 -143.75 C 84.539062 -143.75 77.242188 -139.582031 72.109375 -131.25 C 66.984375 -122.914062 64.421875 -109.375 64.421875 -90.625 C 64.421875 -71.238281 66.785156 -57.457031 71.515625 -49.28125 C 76.242188 -41.101562 83.65625 -37.015625 93.75 -37.015625 C 102.25 -37.015625 109.5 -39.175781 115.5 -43.5 C 121.507812 -47.832031 126.519531 -55.046875 130.53125 -65.140625 C 131.007812 -66.585938 132.375 -67.3125 134.625 -67.3125 C 135.738281 -67.3125 136.617188 -67.226562 137.265625 -67.0625 L 167.3125 -61.0625 C 169.71875 -60.257812 170.921875 -58.414062 170.921875 -55.53125 C 170.921875 -51.039062 168.15625 -44.109375 162.625 -34.734375 C 157.09375 -25.359375 148.4375 -16.820312 136.65625 -9.125 C 124.882812 -1.4375 110.019531 2.40625 92.0625 2.40625 C 75.082031 2.40625 60.179688 -1.640625 47.359375 -9.734375 C 34.535156 -17.828125 24.640625 -28.960938 17.671875 -43.140625 C 10.703125 -57.328125 7.21875 -73.476562 7.21875 -91.59375 C 7.21875 -109.539062 10.703125 -125.242188 17.671875 -138.703125 C 24.640625 -152.160156 34.570312 -162.535156 47.46875 -169.828125 C 60.375 -177.128906 75.398438 -180.78125 92.546875 -180.78125 Z M 92.546875 -180.78125 "/></g></g></g><g fill="#343a40" fill-opacity="1"><g transform="translate(1655.373541, 265.582532)"><g><path d="M 179.09375 -7.453125 C 179.726562 -6.171875 180.046875 -4.890625 180.046875 -3.609375 C 180.046875 -1.203125 178.601562 0 175.71875 0 L 128.84375 0 C 124.519531 0 121.632812 -1.601562 120.1875 -4.8125 L 90.875 -71.640625 C 90.226562 -72.597656 89.582031 -73.078125 88.9375 -73.078125 C 88.144531 -73.078125 87.023438 -72.195312 85.578125 -70.4375 L 68.515625 -48.5625 C 67.546875 -47.4375 67.0625 -45.671875 67.0625 -43.265625 L 67.0625 -6.96875 C 67.0625 -4.40625 66.421875 -2.601562 65.140625 -1.5625 C 63.859375 -0.519531 61.859375 0 59.140625 0 L 18.984375 0 C 16.585938 0 14.90625 -0.476562 13.9375 -1.4375 C 12.976562 -2.40625 12.5 -3.929688 12.5 -6.015625 L 12.5 -172.84375 C 12.5 -174.601562 12.898438 -175.960938 13.703125 -176.921875 C 14.503906 -177.890625 15.625 -178.375 17.0625 -178.375 L 62.734375 -178.375 C 65.617188 -178.375 67.0625 -176.691406 67.0625 -173.328125 L 67.0625 -112.5 C 67.0625 -110.582031 67.460938 -109.625 68.265625 -109.625 C 68.910156 -109.625 69.710938 -110.179688 70.671875 -111.296875 L 114.90625 -173.328125 C 116.34375 -175.242188 117.742188 -176.5625 119.109375 -177.28125 C 120.472656 -178.007812 122.519531 -178.375 125.25 -178.375 L 161.78125 -178.375 C 163.707031 -178.375 165.226562 -178.007812 166.34375 -177.28125 C 167.46875 -176.5625 168.03125 -175.5625 168.03125 -174.28125 C 168.03125 -173.15625 167.628906 -172.195312 166.828125 -171.40625 L 127.40625 -123.078125 C 126.28125 -121.796875 125.71875 -120.4375 125.71875 -119 C 125.71875 -117.875 126.039062 -116.671875 126.6875 -115.390625 Z M 179.09375 -7.453125 "/></g></g></g><g fill="#17a2b8" fill-opacity="1"><g transform="translate(345.166725, 262.86099)"><g><path d="M 12.109375 -167.34375 C 12.109375 -170.914062 13.582031 -172.703125 16.53125 -172.703125 L 142.203125 -172.703125 C 145.003906 -172.703125 146.40625 -171.070312 146.40625 -167.8125 L 146.171875 -140.8125 C 146.171875 -136.625 144.148438 -134.53125 140.109375 -134.53125 L 70.296875 -134.53125 C 66.722656 -134.53125 64.9375 -133.054688 64.9375 -130.109375 L 64.9375 -110.328125 C 64.9375 -108.773438 65.320312 -107.570312 66.09375 -106.71875 C 66.875 -105.863281 67.882812 -105.4375 69.125 -105.4375 L 111.015625 -105.4375 C 114.273438 -105.4375 115.90625 -103.882812 115.90625 -100.78125 L 115.90625 -71.921875 C 115.90625 -69.285156 114.507812 -67.96875 111.71875 -67.96875 L 68.65625 -67.96875 C 67.570312 -67.96875 66.679688 -67.65625 65.984375 -67.03125 C 65.285156 -66.40625 64.9375 -65.628906 64.9375 -64.703125 L 64.9375 -41.421875 C 64.9375 -40.179688 65.128906 -39.328125 65.515625 -38.859375 C 65.898438 -38.398438 66.640625 -38.171875 67.734375 -38.171875 L 143.375 -38.171875 C 146.789062 -38.171875 148.5 -36.695312 148.5 -33.75 L 148.5 -5.125 C 148.5 -3.570312 148.03125 -2.328125 147.09375 -1.390625 C 146.164062 -0.460938 144.769531 0 142.90625 0 L 18.390625 0 C 16.054688 0 14.425781 -0.460938 13.5 -1.390625 C 12.570312 -2.328125 12.109375 -3.800781 12.109375 -5.8125 Z M 12.109375 -167.34375 "/></g></g></g><g fill="#17a2b8" fill-opacity="1"><g transform="translate(501.337696, 262.86099)"><g><path d="M 167.34375 -11.875 C 169.519531 -8.613281 170.609375 -5.972656 170.609375 -3.953125 C 170.609375 -1.316406 168.4375 0 164.09375 0 L 122.1875 0 C 117.382812 0 114.128906 -1.550781 112.421875 -4.65625 L 86.8125 -48.40625 C 85.414062 -50.738281 84.332031 -51.90625 83.5625 -51.90625 C 82.625 -51.90625 81.535156 -50.816406 80.296875 -48.640625 L 55.15625 -4.65625 C 53.445312 -1.550781 50.113281 0 45.15625 0 L 12.109375 0 C 7.765625 0 5.59375 -1.238281 5.59375 -3.71875 C 5.59375 -5.425781 6.753906 -8.144531 9.078125 -11.875 L 54.921875 -82.859375 C 56.015625 -84.410156 56.5625 -85.804688 56.5625 -87.046875 C 56.5625 -88.128906 56.015625 -89.523438 54.921875 -91.234375 L 7.90625 -164.546875 C 7.132812 -165.484375 6.75 -166.804688 6.75 -168.515625 C 6.75 -171.304688 8.378906 -172.703125 11.640625 -172.703125 L 55.625 -172.703125 C 58.101562 -172.703125 60.039062 -172.3125 61.4375 -171.53125 C 62.84375 -170.757812 64.007812 -169.519531 64.9375 -167.8125 L 86.125 -130.34375 C 86.894531 -129.101562 87.742188 -128.484375 88.671875 -128.484375 C 89.609375 -128.484375 90.460938 -129.101562 91.234375 -130.34375 L 112.421875 -167.8125 C 113.347656 -169.519531 114.46875 -170.757812 115.78125 -171.53125 C 117.101562 -172.3125 119.007812 -172.703125 121.5 -172.703125 L 157.578125 -172.703125 C 160.679688 -172.703125 162.234375 -171.535156 162.234375 -169.203125 C 162.234375 -168.117188 161.6875 -166.722656 160.59375 -165.015625 L 116.609375 -97.515625 C 115.679688 -96.117188 115.21875 -94.878906 115.21875 -93.796875 C 115.21875 -92.710938 115.835938 -91.160156 117.078125 -89.140625 Z M 167.34375 -11.875 "/></g></g></g><g fill="#17a2b8" fill-opacity="1"><g transform="translate(677.291891, 262.86099)"><g><path d="M 10.015625 0 C 8.765625 0 7.75 -0.425781 6.96875 -1.28125 C 6.195312 -2.132812 5.8125 -3.335938 5.8125 -4.890625 C 5.8125 -5.972656 6.046875 -7.210938 6.515625 -8.609375 L 62.84375 -167.34375 C 63.613281 -169.363281 64.460938 -170.757812 65.390625 -171.53125 C 66.328125 -172.3125 67.804688 -172.703125 69.828125 -172.703125 L 115.671875 -172.703125 C 117.535156 -172.703125 119.203125 -172.117188 120.671875 -170.953125 C 122.148438 -169.785156 123.28125 -168.273438 124.0625 -166.421875 L 179.921875 -7.90625 C 180.222656 -6.664062 180.375 -5.738281 180.375 -5.125 C 180.375 -3.726562 180.0625 -2.523438 179.4375 -1.515625 C 178.820312 -0.503906 177.894531 0 176.65625 0 L 131.03125 0 C 128.394531 0 126.691406 -1.316406 125.921875 -3.953125 L 116.84375 -30.71875 C 116.375 -31.8125 115.945312 -32.550781 115.5625 -32.9375 C 115.175781 -33.320312 114.4375 -33.515625 113.34375 -33.515625 L 64 -33.515625 C 62.144531 -33.515625 60.984375 -32.660156 60.515625 -30.953125 L 50.96875 -3.484375 C 50.039062 -1.160156 48.179688 0 45.390625 0 Z M 101.71875 -73.078125 C 103.414062 -73.078125 104.265625 -73.851562 104.265625 -75.40625 C 104.265625 -75.71875 104.113281 -76.492188 103.8125 -77.734375 L 89.84375 -117.53125 C 89.53125 -118.3125 89.0625 -118.703125 88.4375 -118.703125 C 87.820312 -118.703125 87.359375 -118.3125 87.046875 -117.53125 L 72.84375 -77.96875 C 72.539062 -77.351562 72.390625 -76.578125 72.390625 -75.640625 C 72.390625 -73.929688 73.316406 -73.078125 75.171875 -73.078125 Z M 101.71875 -73.078125 "/></g></g></g><g fill="#17a2b8" fill-opacity="1"><g transform="translate(863.25402, 262.86099)"><g><path d="M 18.15625 0 C 16.289062 0 14.816406 -0.578125 13.734375 -1.734375 C 12.648438 -2.898438 12.109375 -4.492188 12.109375 -6.515625 L 12.109375 -167.34375 C 12.109375 -169.207031 12.492188 -170.566406 13.265625 -171.421875 C 14.046875 -172.273438 15.285156 -172.703125 16.984375 -172.703125 L 82.15625 -172.703125 C 84.175781 -172.703125 85.613281 -172.429688 86.46875 -171.890625 C 87.320312 -171.347656 88.054688 -170.222656 88.671875 -168.515625 L 112.890625 -94.5 C 113.347656 -93.257812 113.890625 -92.640625 114.515625 -92.640625 C 114.984375 -92.640625 115.445312 -93.257812 115.90625 -94.5 L 137.5625 -165.953125 C 138.800781 -170.453125 140.894531 -172.703125 143.84375 -172.703125 L 211.109375 -172.703125 C 213.898438 -172.703125 215.296875 -171.070312 215.296875 -167.8125 L 215.296875 -6.75 C 215.296875 -4.269531 214.710938 -2.523438 213.546875 -1.515625 C 212.378906 -0.503906 210.476562 0 207.84375 0 L 168.515625 0 C 166.179688 0 164.585938 -0.460938 163.734375 -1.390625 C 162.878906 -2.328125 162.453125 -3.800781 162.453125 -5.8125 L 162.453125 -110.328125 C 162.453125 -111.566406 162.144531 -112.1875 161.53125 -112.1875 C 160.75 -112.1875 160.128906 -111.488281 159.671875 -110.09375 L 126.15625 -4.1875 C 125.0625 -1.394531 123.195312 0 120.5625 0 L 96.125 0 C 93.332031 0 91.472656 -1.394531 90.546875 -4.1875 L 57.03125 -108.234375 C 56.5625 -109.785156 56.015625 -110.5625 55.390625 -110.5625 C 54.617188 -110.5625 54.234375 -109.707031 54.234375 -108 L 54.234375 -5.125 C 54.234375 -3.101562 53.921875 -1.742188 53.296875 -1.046875 C 52.679688 -0.347656 51.285156 0 49.109375 0 Z M 18.15625 0 "/></g></g></g></svg>