<svg xmlns="http://www.w3.org/2000/svg" xmlns:xlink="http://www.w3.org/1999/xlink" width="1080" zoomAndPan="magnify" viewBox="0 0 810 809.999993" height="1080" preserveAspectRatio="xMidYMid meet" version="1.0"><rect x="-81" width="972" fill="#ffffff" y="-80.999999" height="971.999992" fill-opacity="1"/><rect x="-81" width="972" fill="#ffffff" y="-80.999999" height="971.999992" fill-opacity="1"/><rect x="-81" width="972" fill="#ffffff" y="-80.999999" height="971.999992" fill-opacity="1"/><path fill="#f42f2f" d="M 787.21875 315.980469 C 786.0625 303.90625 784.933594 295.703125 782.757812 283.257812 C 781.023438 273.34375 778.835938 263.519531 776.203125 253.78125 C 771.101562 235.128906 764.292969 217.117188 755.773438 199.753906 C 747.253906 182.390625 737.179688 165.980469 725.550781 150.527344 C 678.230469 87.460938 609.464844 42.320312 533.265625 18.914062 C 513.929688 13.039062 494.234375 8.832031 474.183594 6.289062 C 453.816406 3.632812 433.40625 2.035156 412.871094 0.589844 C 408.476562 0.289062 404.773438 4.609375 404.828125 8.644531 C 404.824219 10.230469 405.285156 11.664062 406.207031 12.953125 C 393.648438 12.8125 381.125 13.34375 368.625 14.554688 C 356.128906 15.761719 343.730469 17.640625 331.4375 20.1875 C 319.140625 22.734375 307.019531 25.933594 295.070312 29.785156 C 283.121094 33.640625 271.414062 38.125 259.949219 43.242188 C 194.421875 72.605469 138.945312 122.457031 101.058594 182.042969 C 89.289062 200.703125 79.292969 220.265625 71.066406 240.738281 C 62.84375 261.207031 56.523438 282.25 52.113281 303.867188 C 49.074219 311.78125 46.300781 319.789062 43.796875 327.886719 C 41.292969 335.984375 39.058594 344.160156 37.101562 352.410156 C 35.144531 360.65625 33.464844 368.960938 32.0625 377.324219 C 30.660156 385.683594 29.539062 394.082031 28.699219 402.519531 C 27.859375 410.953125 27.300781 419.410156 27.027344 427.882812 C 26.753906 436.355469 26.761719 444.828125 27.054688 453.300781 C 27.347656 461.773438 27.921875 470.226562 28.78125 478.660156 C 29.640625 487.09375 30.78125 495.488281 32.199219 503.847656 C 44.472656 575.546875 79.824219 642.800781 131.136719 695.417969 C 184.230469 749.851562 254.988281 787.148438 331.394531 798.132812 C 411.8125 809.710938 494.691406 794.265625 562.984375 750.597656 C 573.203125 744.0625 583.050781 737.015625 592.527344 729.449219 C 605.132812 721.707031 617.253906 713.269531 628.894531 704.140625 C 640.535156 695.011719 651.613281 685.246094 662.136719 674.851562 C 672.660156 664.453125 682.554688 653.488281 691.820312 641.960938 C 701.089844 630.433594 709.667969 618.414062 717.5625 605.902344 C 761.082031 537.398438 783.96875 457.578125 788.335938 377.371094 C 789.5 356.878906 789.128906 336.417969 787.21875 315.980469 Z M 158.339844 154.453125 C 169.644531 141.664062 181.796875 129.730469 194.792969 118.65625 C 197.710938 116.179688 200.671875 113.742188 203.675781 111.347656 L 206.429688 109.199219 L 206.609375 109.0625 L 207.105469 108.691406 C 208.941406 107.296875 210.777344 105.917969 212.613281 104.558594 C 219.425781 99.578125 226.417969 94.839844 233.585938 90.351562 C 247.980469 81.402344 262.933594 73.507812 278.441406 66.671875 L 278.816406 66.507812 L 279.171875 66.355469 L 282.382812 64.980469 C 284.171875 64.265625 285.960938 63.601562 287.765625 62.859375 C 291.898438 61.246094 296.070312 59.730469 300.285156 58.316406 C 308.757812 55.425781 317.339844 52.902344 326.023438 50.746094 C 334.710938 48.585938 343.460938 46.792969 352.273438 45.363281 C 353.046875 45.238281 357 44.671875 356.804688 44.6875 C 358.402344 44.464844 360.015625 44.261719 361.613281 44.066406 C 366.460938 43.476562 371.320312 43.007812 376.183594 42.691406 C 394.066406 41.332031 411.941406 41.402344 429.808594 42.910156 C 432.042969 43.089844 434.257812 43.296875 436.488281 43.53125 L 439.519531 43.859375 C 435.703125 43.449219 439.796875 43.859375 440.414062 43.972656 C 444.832031 44.53125 449.246094 45.1875 453.664062 45.941406 C 462.671875 47.453125 471.597656 49.335938 480.449219 51.585938 C 489.300781 53.832031 498.023438 56.445312 506.617188 59.417969 C 510.429688 60.792969 514.21875 62.171875 517.992188 63.546875 L 518.390625 63.714844 L 518.914062 63.933594 C 520.042969 64.402344 521.160156 64.84375 522.277344 65.308594 C 524.328125 66.164062 526.40625 67.058594 528.417969 67.96875 C 517.992188 65.488281 507.441406 63.5625 496.878906 62.101562 C 478.539062 59.546875 460.109375 58.214844 441.59375 58.105469 C 423.074219 57.996094 404.632812 59.113281 386.261719 61.457031 C 368.097656 63.804688 350.191406 67.445312 332.554688 72.386719 C 315.160156 77.21875 297.820312 82.53125 280.949219 88.90625 C 269.574219 93.203125 258.40625 97.988281 247.441406 103.265625 C 234.070312 108.886719 221.03125 115.195312 208.332031 122.195312 C 200.335938 126.558594 192.597656 131.332031 185.109375 136.515625 C 177.179688 142.019531 169.492188 147.773438 161.988281 153.777344 C 158.515625 156.53125 155.085938 159.359375 151.699219 162.257812 C 153.847656 159.628906 156.066406 157.027344 158.339844 154.453125 Z M 332.402344 769.125 C 312.867188 765.941406 293.761719 761.078125 275.082031 754.535156 C 273.015625 753.808594 270.957031 753.058594 268.898438 752.289062 L 265.828125 751.132812 L 264.273438 750.511719 C 259.679688 748.675781 255.140625 746.722656 250.652344 744.648438 C 242.738281 740.976562 234.972656 737.03125 227.363281 732.808594 C 219.75 728.585938 212.40625 724.113281 205.328125 719.386719 C 201.746094 717.019531 198.21875 714.582031 194.738281 712.074219 L 193.964844 711.523438 C 194.421875 711.839844 192.449219 710.394531 192.105469 710.148438 C 190.234375 708.769531 188.386719 707.394531 186.597656 705.894531 C 173.066406 695.351562 160.371094 683.878906 148.519531 671.476562 C 142.367188 665.050781 136.457031 658.386719 130.792969 651.488281 L 130.792969 651.582031 L 130.710938 651.472656 C 130.519531 651.253906 130.148438 650.785156 129.980469 650.5625 L 128.605469 648.910156 C 127.40625 647.382812 126.207031 645.855469 125.023438 644.3125 C 122.203125 640.640625 119.449219 636.886719 116.761719 633.050781 C 106.929688 619.101562 98.152344 604.515625 90.429688 589.300781 C 88.5 585.519531 86.664062 581.695312 84.917969 577.832031 C 84.589844 577.128906 84.273438 576.457031 83.957031 575.726562 C 85.414062 578.890625 83.789062 575.339844 83.582031 574.859375 C 82.664062 572.738281 81.746094 570.609375 80.828125 568.46875 C 77.515625 560.457031 74.503906 552.335938 71.796875 544.101562 C 66.648438 528.210938 62.671875 512.027344 59.867188 495.558594 C 66.527344 518.984375 75.21875 541.628906 85.949219 563.492188 C 96.675781 585.355469 109.269531 606.085938 123.730469 625.6875 C 170.085938 688.273438 233.90625 736.964844 309.292969 761.707031 C 319.484375 765.046875 329.820312 767.914062 340.308594 770.308594 C 337.652344 769.953125 335.019531 769.558594 332.402344 769.125 Z M 712.949219 397.082031 C 712.835938 406.097656 712.476562 415.109375 711.859375 424.121094 C 711.53125 429.078125 711.117188 434.019531 710.648438 438.964844 C 710.425781 441.203125 710.195312 443.445312 709.945312 445.695312 C 709.792969 447.074219 709.628906 448.378906 709.476562 449.730469 C 709.476562 450.058594 709.449219 450.320312 709.394531 450.515625 C 709.394531 450.679688 709.394531 450.925781 709.285156 451.257812 C 706.644531 471.425781 702.761719 491.351562 697.632812 511.035156 C 695.097656 520.625 692.25 530.128906 689.082031 539.546875 C 687.566406 544.035156 685.976562 548.5 684.316406 552.941406 C 683.433594 555.269531 682.554688 557.582031 681.628906 559.824219 C 681.300781 560.664062 680.96875 561.503906 680.625 562.34375 C 680.5 562.6875 679.386719 565.34375 679.246094 565.839844 C 671.699219 583.667969 662.878906 600.847656 652.792969 617.371094 C 648.203125 624.90625 643.316406 632.273438 638.140625 639.46875 C 636.761719 641.4375 635.300781 643.378906 633.855469 645.320312 L 632.410156 647.246094 L 631.128906 649.023438 C 628.457031 652.421875 625.742188 655.796875 622.949219 659.113281 C 611.378906 672.910156 598.835938 685.761719 585.324219 697.660156 C 582.148438 700.414062 578.933594 703.140625 575.683594 705.839844 C 568.28125 710.289062 560.722656 714.464844 553 718.367188 C 549.015625 720.378906 544.984375 722.308594 540.910156 724.164062 L 536.363281 726.171875 L 534.382812 727.027344 L 529.863281 728.859375 C 513.160156 735.507812 496.015625 740.6875 478.425781 744.402344 C 473.992188 745.320312 469.535156 746.148438 465.054688 746.890625 L 461.804688 747.402344 L 461.222656 747.5 L 460.5625 747.582031 C 457.960938 747.910156 455.359375 748.253906 452.753906 748.53125 C 443.195312 749.578125 433.597656 750.179688 423.957031 750.335938 C 414.316406 750.492188 404.703125 750.222656 395.117188 749.535156 C 390.644531 749.21875 386.179688 748.792969 381.734375 748.296875 L 379.5 748.019531 L 376.898438 747.664062 C 374.078125 747.277344 371.265625 746.851562 368.457031 746.382812 C 349.175781 743.210938 330.304688 738.433594 311.839844 732.050781 C 307.707031 730.675781 303.578125 729.089844 299.445312 727.535156 L 298.769531 727.289062 L 298.136719 727.027344 C 296.925781 726.53125 295.699219 726.035156 294.5 725.527344 C 292.078125 724.519531 289.667969 723.472656 287.269531 722.414062 C 278.484375 718.503906 269.882812 714.238281 261.460938 709.609375 C 253.347656 705.152344 245.433594 700.375 237.71875 695.28125 C 234.046875 692.828125 230.375 690.308594 226.703125 687.722656 L 224.292969 685.988281 L 223.863281 685.671875 C 221.9375 684.210938 220.007812 682.75 218.09375 681.265625 C 203.765625 670.113281 190.332031 657.96875 177.796875 644.835938 C 171.683594 638.410156 165.796875 631.808594 160.140625 625.027344 L 159.082031 623.746094 C 160.347656 625.273438 158.214844 622.671875 157.9375 622.367188 C 156.671875 620.800781 155.425781 619.222656 154.207031 617.632812 C 151.242188 613.824219 148.359375 609.960938 145.558594 606.039062 C 135.265625 591.621094 125.980469 576.578125 117.710938 560.914062 C 115.644531 557.03125 113.644531 553.105469 111.707031 549.140625 C 110.789062 547.351562 109.921875 545.546875 109.101562 543.730469 C 108.59375 542.644531 108.085938 541.554688 107.589844 540.46875 C 107.492188 540.261719 106.980469 539.089844 106.734375 538.582031 C 103.085938 530.320312 99.667969 521.839844 96.585938 513.304688 C 89.898438 494.8125 84.628906 475.921875 80.773438 456.640625 C 79.902344 452.316406 79.109375 447.980469 78.390625 443.628906 C 78.242188 442.722656 78.101562 441.828125 77.949219 440.878906 C 77.949219 440.53125 77.605469 438.535156 77.566406 438.289062 C 77.195312 435.671875 76.847656 433.042969 76.53125 430.429688 C 75.367188 420.800781 74.554688 411.164062 74.09375 401.515625 C 73.175781 382.152344 73.714844 362.828125 75.707031 343.542969 C 75.84375 342.167969 75.980469 340.929688 76.132812 339.621094 L 76.4375 337.253906 C 76.671875 335.40625 76.917969 333.546875 77.195312 331.746094 C 77.929688 326.753906 78.765625 321.773438 79.699219 316.808594 C 81.011719 309.859375 82.523438 302.949219 84.230469 296.074219 C 85.195312 293.898438 86.160156 291.722656 87.164062 289.550781 C 94.628906 273.363281 103.21875 257.796875 112.933594 242.851562 C 115.375 239.125 117.886719 235.453125 120.464844 231.835938 C 121.609375 230.238281 122.75 228.65625 123.921875 227.074219 L 125.972656 224.15625 L 127.171875 222.570312 C 132.390625 215.839844 138.039062 209.507812 143.589844 203.050781 L 145.476562 200.613281 C 144.855469 201.550781 145.007812 201.453125 145.886719 200.367188 C 146.742188 199.554688 147.484375 198.601562 148.285156 197.75 C 149.660156 196.304688 150.957031 194.871094 152.320312 193.453125 C 155.441406 190.179688 158.628906 186.964844 161.878906 183.816406 C 168.230469 177.648438 174.800781 171.710938 181.585938 166.003906 C 194.574219 155.1875 208.121094 145.117188 222.226562 135.796875 C 236.792969 126.085938 251.964844 117.445312 267.746094 109.871094 C 283.53125 102.296875 299.765625 95.863281 316.453125 90.574219 C 331.253906 85.863281 346.28125 82.070312 361.542969 79.1875 C 365.214844 78.664062 368.886719 78.15625 372.5625 77.660156 C 380.59375 76.578125 388.65625 75.707031 396.742188 75.058594 C 403.628906 74.699219 410.445312 74.546875 417.25 74.535156 C 417.917969 74.558594 418.453125 74.304688 418.863281 73.777344 C 438.828125 73.105469 458.75 73.753906 478.632812 75.71875 C 515.140625 79.367188 551.84375 88.300781 583.972656 106.003906 C 594.046875 111.570312 603.535156 117.996094 612.441406 125.28125 L 612.703125 125.542969 C 618.796875 131.570312 624.628906 137.847656 630.191406 144.375 C 631.292969 145.75 632.394531 146.992188 633.484375 148.3125 C 633.691406 148.585938 635.785156 151.1875 636.128906 151.617188 C 638.9375 155.214844 641.667969 158.859375 644.324219 162.546875 C 654.054688 176.164062 662.742188 190.417969 670.378906 205.308594 C 672.289062 209.035156 674.125 212.792969 675.886719 216.582031 C 676.605469 218.082031 677.265625 219.597656 677.980469 221.113281 C 678.132812 221.429688 678.285156 221.789062 678.378906 221.992188 C 678.917969 223.21875 679.453125 224.445312 679.976562 225.667969 C 683.285156 233.414062 686.332031 241.257812 689.121094 249.199219 C 694.789062 265.347656 699.441406 281.785156 703.074219 298.511719 C 704.933594 306.992188 706.476562 315.515625 707.878906 324.078125 C 707.878906 324.1875 707.878906 324.351562 707.949219 324.515625 L 708.320312 327.105469 C 708.582031 329.003906 708.84375 330.917969 709.09375 332.832031 C 709.683594 337.417969 710.195312 342.015625 710.648438 346.601562 C 712.324219 363.386719 713.09375 380.214844 712.949219 397.082031 Z M 760.417969 382.40625 C 760.007812 387.363281 759.496094 392.308594 758.933594 397.234375 C 758.933594 397.359375 758.601562 399.890625 758.601562 399.988281 C 758.53125 400.566406 758.449219 401.144531 758.382812 401.722656 C 758.023438 404.394531 757.640625 407.066406 757.238281 409.734375 C 755.75 419.65625 753.957031 429.527344 751.855469 439.347656 C 747.824219 457.921875 742.875 476.246094 737.007812 494.320312 C 734.070312 503.351562 730.855469 512.296875 727.367188 521.152344 C 726.585938 523.164062 725.789062 525.167969 724.972656 527.167969 C 724.859375 527.417969 724.007812 529.46875 723.964844 529.566406 C 723.621094 530.390625 723.261719 531.21875 722.917969 532.027344 C 722.4375 533.128906 721.953125 534.21875 721.457031 535.304688 C 729.789062 507.644531 735.636719 479.464844 739.003906 450.777344 C 743.542969 414.015625 743.832031 377.21875 739.871094 340.390625 C 732.089844 269.917969 709.023438 199.648438 665.804688 142.007812 C 654.902344 127.34375 642.832031 113.714844 629.589844 101.121094 C 616.351562 88.527344 602.136719 77.148438 586.949219 66.988281 C 603.082031 75.191406 618.542969 84.507812 633.332031 94.9375 L 635.8125 96.714844 L 636.5 97.207031 L 637.175781 97.703125 C 638.800781 98.929688 640.425781 100.140625 642.035156 101.378906 C 645.902344 104.355469 649.703125 107.40625 653.4375 110.535156 C 660.289062 116.261719 666.898438 122.226562 673.269531 128.433594 C 679.644531 134.636719 685.75 141.09375 691.585938 147.800781 C 692.910156 149.328125 694.21875 150.859375 695.511719 152.402344 L 697.386719 154.671875 L 698.859375 156.488281 C 701.613281 159.960938 704.292969 163.480469 706.902344 167.050781 C 717.878906 181.910156 727.242188 197.726562 734.996094 214.496094 C 742.753906 231.261719 748.738281 248.640625 752.957031 266.625 C 754.011719 270.976562 754.984375 275.347656 755.875 279.734375 C 756.398438 282.375 756.894531 285.003906 757.363281 287.664062 L 757.816406 290.304688 C 757.96875 291.1875 758.105469 292.082031 758.242188 292.964844 C 758.242188 293.363281 758.355469 293.664062 758.394531 293.886719 C 759.773438 303.523438 760.722656 313.285156 761.300781 323.03125 C 762.414062 342.863281 762.121094 362.671875 760.417969 382.464844 Z M 760.417969 382.40625 " fill-opacity="1" fill-rule="nonzero"/><path fill="#f42f2f" d="M 129.980469 650.496094 L 130.753906 651.457031 Z M 129.980469 650.496094 " fill-opacity="1" fill-rule="nonzero"/><path fill="#f42f2f" d="M 401.300781 236.820312 L 400.863281 236.378906 C 401.078125 236.996094 401.4375 237.515625 401.9375 237.9375 C 401.742188 237.605469 401.550781 237.273438 401.386719 236.957031 Z M 401.300781 236.820312 " fill-opacity="1" fill-rule="nonzero"/><path fill="#f42f2f" d="M 524.5625 377.203125 C 523.335938 369.152344 517.675781 363.726562 509.949219 361.097656 C 498.765625 357.3125 484.347656 361.921875 472.847656 363.851562 L 457.175781 366.4375 L 450.566406 262.425781 C 449.050781 238.597656 444.960938 212.328125 422.015625 198.863281 C 409.304688 191.429688 392.433594 190.8125 378.855469 196.234375 C 364.710938 201.878906 354.066406 211.144531 345.898438 223.671875 C 338.820312 234.4375 334.589844 246.925781 330.15625 258.875 C 325.566406 271.320312 321.113281 283.832031 316.796875 296.40625 C 308.34375 321.1875 300.5625 346.214844 293.453125 371.492188 C 291.304688 379.144531 289.21875 386.816406 287.1875 394.507812 L 264.421875 398.269531 C 243.546875 401.722656 222.695312 405.316406 201.84375 408.867188 C 200.128906 408.953125 198.449219 409.238281 196.804688 409.722656 L 196.457031 409.722656 C 195.480469 410.015625 194.53125 410.375 193.605469 410.800781 C 192.679688 411.230469 191.789062 411.722656 190.933594 412.273438 C 190.074219 412.828125 189.261719 413.441406 188.492188 414.109375 C 187.722656 414.777344 187.007812 415.496094 186.339844 416.269531 C 185.671875 417.039062 185.0625 417.855469 184.507812 418.710938 C 183.957031 419.566406 183.46875 420.460938 183.042969 421.386719 C 182.617188 422.3125 182.261719 423.265625 181.96875 424.242188 C 181.679688 425.21875 181.460938 426.210938 181.308594 427.21875 C 181.085938 428.8125 181.050781 430.40625 181.207031 432.003906 C 181.367188 433.605469 181.710938 435.164062 182.242188 436.679688 C 182.773438 438.195312 183.480469 439.628906 184.355469 440.976562 C 185.230469 442.324219 186.253906 443.546875 187.425781 444.648438 C 193.386719 450.308594 200.507812 450.996094 208.300781 449.742188 C 230.917969 446.136719 253.53125 442.5 276.144531 438.839844 C 274.710938 445.0625 273.332031 451.289062 272.011719 457.523438 C 268.84375 472.140625 265.902344 486.828125 263.183594 501.578125 C 261.808594 508.941406 260.761719 516.347656 259.671875 523.769531 C 258.5625 532.285156 258.203125 540.835938 258.585938 549.417969 C 258.621094 550.507812 258.757812 551.585938 258.988281 552.652344 C 259.21875 553.71875 259.542969 554.757812 259.960938 555.765625 C 260.378906 556.777344 260.878906 557.738281 261.46875 558.660156 C 262.058594 559.578125 262.726562 560.4375 263.46875 561.234375 C 264.210938 562.035156 265.019531 562.761719 265.894531 563.417969 C 266.769531 564.074219 267.691406 564.644531 268.667969 565.132812 C 269.644531 565.625 270.65625 566.023438 271.703125 566.332031 C 272.75 566.640625 273.816406 566.851562 274.902344 566.96875 C 284.40625 568.097656 292.105469 562.398438 295.09375 553.753906 C 297.078125 548.011719 299.5 542.285156 300.726562 536.339844 C 302.019531 530.019531 303.234375 523.6875 304.472656 517.351562 C 306.882812 504.964844 309.128906 492.640625 311.6875 480.320312 C 315.105469 463.9375 318.808594 447.609375 322.800781 431.335938 L 416.5625 416.042969 C 416.5625 417.03125 416.6875 418.023438 416.753906 419.015625 L 427.167969 583.558594 C 426.335938 587.125 426.335938 590.691406 427.167969 594.257812 L 428.707031 601.058594 C 431.078125 611.410156 442.839844 617.496094 452.949219 616.050781 C 463.054688 614.605469 472.324219 605.492188 471.648438 594.835938 C 467.710938 532.875 463.777344 470.921875 459.847656 408.980469 L 478.535156 405.882812 L 495.820312 403.058594 C 502.707031 401.929688 509.589844 401.214844 515.222656 396.851562 C 521.78125 391.824219 525.855469 385.765625 524.5625 377.203125 Z M 383.207031 378.582031 L 334.496094 386.632812 C 345.84375 345.875 358.96875 305.597656 373.867188 265.800781 C 374.785156 263.296875 375.746094 260.796875 376.746094 258.3125 C 376.753906 258.277344 376.753906 258.246094 376.746094 258.214844 C 376.703125 258.332031 376.652344 258.445312 376.597656 258.558594 L 376.800781 258.105469 C 376.953125 257.734375 377.203125 257.195312 377.351562 256.851562 L 378.027344 255.351562 C 379.144531 252.984375 380.328125 250.644531 381.636719 248.371094 C 382.351562 247.117188 383.097656 245.878906 383.894531 244.667969 C 384.320312 244.019531 385.878906 242.191406 386.03125 241.984375 C 387.132812 240.800781 388.246094 239.628906 389.445312 238.515625 L 390.023438 237.949219 C 390.878906 237.453125 391.953125 237 392.476562 236.722656 L 393.191406 236.324219 L 393.894531 235.996094 C 394.664062 235.773438 395.519531 235.59375 395.667969 235.539062 C 395.820312 235.484375 396.648438 235.363281 397.308594 235.25 L 397.445312 235.25 L 398.164062 235.113281 L 398.382812 235.113281 L 398.699219 235.195312 L 399.472656 235.195312 C 399.425781 235.25 399.375 235.296875 399.320312 235.335938 L 399.925781 235.484375 L 400.105469 235.484375 L 400.171875 235.554688 L 400.449219 235.882812 C 400.574219 236.023438 400.707031 236.15625 400.847656 236.285156 C 400.804688 236.195312 400.773438 236.105469 400.75 236.007812 L 400.972656 236.144531 C 401.054688 236.285156 401.164062 236.476562 401.289062 236.722656 C 401.683594 237.066406 402.042969 237.441406 402.363281 237.851562 C 402.214844 237.960938 402.070312 237.960938 401.921875 237.851562 C 402.210938 238.347656 402.515625 238.832031 402.789062 239.230469 L 402.871094 239.355469 C 404.25 243.59375 404.992188 247.835938 406.109375 252.101562 C 404.582031 246.25 406.109375 252.804688 406.246094 254.566406 C 406.496094 257.320312 406.660156 260.074219 406.839844 262.828125 C 409.171875 299.695312 411.503906 336.5625 413.835938 373.433594 Z M 383.207031 378.582031 " fill-opacity="1" fill-rule="nonzero"/><path fill="#f42f2f" d="M 397.5 235.238281 C 398.023438 235.484375 398.878906 235.707031 399.332031 235.375 L 398.714844 235.222656 Z M 397.5 235.238281 " fill-opacity="1" fill-rule="nonzero"/><path fill="#f42f2f" d="M 376.761719 258.214844 C 377.671875 256.273438 377.628906 256.300781 377.367188 256.839844 C 377.105469 257.375 376.996094 257.679688 376.816406 258.089844 C 376.808594 258.136719 376.789062 258.179688 376.761719 258.214844 Z M 376.761719 258.214844 " fill-opacity="1" fill-rule="nonzero"/><path fill="#f42f2f" d="M 635.398438 238.140625 C 630.179688 230.472656 621.875 227.84375 612.8125 229.511719 C 599.261719 232.007812 585.71875 234.511719 572.183594 237.027344 C 572.089844 235.652344 571.992188 234.273438 571.910156 232.898438 C 571.550781 227.390625 571.1875 221.910156 570.820312 216.460938 C 570.339844 209.066406 570.671875 201.316406 566.375 194.816406 C 559.210938 184.066406 540.769531 182.539062 534.367188 195.230469 C 530.828125 202.238281 531.214844 208.515625 531.613281 215.992188 C 531.914062 221.5 532.222656 226.976562 532.535156 232.429688 L 533.195312 244.351562 C 519.085938 246.996094 504.972656 249.671875 490.863281 252.378906 C 480.863281 254.304688 474.445312 266.75 477.597656 275.863281 C 481.261719 286.421875 490.929688 290.664062 501.6875 288.792969 C 512.925781 286.835938 524.15625 284.859375 535.386719 282.859375 C 536.304688 297.945312 537.222656 313.039062 538.140625 328.136719 C 538.621094 336.398438 544.242188 344.824219 553 346.65625 C 560.890625 348.308594 571.921875 345.5 575.351562 337.457031 C 575.765625 336.453125 576.191406 335.460938 576.621094 334.457031 C 578.753906 329.445312 580.046875 324.929688 578.421875 319.480469 C 578.125 318.46875 577.734375 317.496094 577.253906 316.558594 C 576.425781 302.96875 575.585938 289.378906 574.734375 275.796875 L 611.3125 269.050781 C 612.820312 269.402344 614.347656 269.578125 615.898438 269.574219 C 622.550781 269.492188 627.976562 265.898438 632.601562 261.65625 C 638.757812 256.039062 640.09375 245.039062 635.398438 238.140625 Z M 635.398438 238.140625 " fill-opacity="1" fill-rule="nonzero"/></svg>