<svg xmlns="http://www.w3.org/2000/svg" xmlns:xlink="http://www.w3.org/1999/xlink" width="2500" zoomAndPan="magnify" viewBox="0 0 1874.88 359.999987" height="480" preserveAspectRatio="xMidYMid meet" version="1.0"><defs><g/><clipPath id="cac47b31dc"><path d="M 2 24.160156 L 291 24.160156 L 291 328 L 2 328 Z M 2 24.160156 " clip-rule="nonzero"/></clipPath></defs><g clip-path="url(#cac47b31dc)"><path fill="#ff5757" d="M 290.289062 143.71875 C 289.851562 139.152344 289.421875 136.046875 288.597656 131.335938 C 287.941406 127.585938 287.113281 123.867188 286.117188 120.183594 C 284.183594 113.125 281.605469 106.3125 278.378906 99.742188 C 275.152344 93.171875 271.335938 86.964844 266.929688 81.117188 C 249.007812 57.253906 222.964844 40.171875 194.105469 31.316406 C 186.78125 29.09375 179.324219 27.503906 171.730469 26.539062 C 164.015625 25.535156 156.285156 24.929688 148.507812 24.382812 C 146.84375 24.269531 145.441406 25.90625 145.460938 27.429688 C 145.460938 28.03125 145.636719 28.574219 145.984375 29.0625 C 136.445312 28.953125 127.007812 29.867188 117.667969 31.800781 C 108.324219 33.730469 99.300781 36.640625 90.589844 40.523438 C 65.773438 51.632812 44.761719 70.496094 30.414062 93.039062 C 25.957031 100.101562 22.167969 107.503906 19.054688 115.25 C 15.941406 122.996094 13.546875 130.957031 11.875 139.136719 C 9.570312 145.128906 7.675781 151.253906 6.191406 157.5 C 4.707031 163.75 3.644531 170.070312 3.007812 176.460938 C 2.371094 182.851562 2.164062 189.257812 2.386719 195.675781 C 2.609375 202.09375 3.257812 208.46875 4.335938 214.800781 C 8.980469 241.929688 22.371094 267.378906 41.804688 287.285156 C 61.914062 307.882812 88.710938 321.996094 117.652344 326.152344 C 148.105469 330.53125 179.496094 324.6875 205.363281 308.164062 C 209.230469 305.691406 212.960938 303.027344 216.550781 300.164062 C 226.128906 294.285156 234.917969 287.398438 242.914062 279.503906 C 250.910156 271.609375 257.910156 262.914062 263.90625 253.417969 C 280.386719 227.496094 289.058594 197.292969 290.710938 166.945312 C 291.152344 159.195312 291.011719 151.449219 290.289062 143.71875 Z M 52.105469 82.601562 C 56.390625 77.761719 60.992188 73.246094 65.914062 69.058594 C 67.019531 68.121094 68.140625 67.199219 69.277344 66.292969 L 70.320312 65.480469 L 70.390625 65.425781 L 70.578125 65.285156 C 71.273438 64.757812 71.96875 64.238281 72.664062 63.722656 C 75.242188 61.835938 77.890625 60.046875 80.605469 58.347656 C 86.058594 54.960938 91.722656 51.972656 97.59375 49.386719 L 97.738281 49.324219 L 97.871094 49.269531 L 99.085938 48.746094 C 99.765625 48.476562 100.445312 48.226562 101.125 47.945312 C 102.691406 47.332031 104.273438 46.761719 105.867188 46.226562 C 109.078125 45.132812 112.328125 44.175781 115.617188 43.359375 C 118.90625 42.542969 122.21875 41.867188 125.558594 41.324219 C 125.851562 41.277344 127.347656 41.0625 127.273438 41.070312 C 127.878906 40.984375 128.488281 40.90625 129.09375 40.835938 C 130.929688 40.609375 132.773438 40.433594 134.613281 40.3125 C 141.386719 39.796875 148.15625 39.828125 154.925781 40.398438 C 155.769531 40.464844 156.609375 40.542969 157.453125 40.632812 L 158.601562 40.757812 C 157.15625 40.601562 158.707031 40.757812 158.941406 40.796875 C 160.613281 41.011719 162.285156 41.257812 163.957031 41.542969 C 167.371094 42.117188 170.75 42.828125 174.101562 43.679688 C 177.457031 44.53125 180.757812 45.515625 184.011719 46.644531 C 185.457031 47.164062 186.894531 47.683594 188.320312 48.207031 L 188.472656 48.269531 L 188.671875 48.351562 C 189.097656 48.527344 189.519531 48.695312 189.945312 48.871094 C 190.722656 49.195312 191.507812 49.535156 192.269531 49.878906 C 188.320312 48.941406 184.328125 48.210938 180.324219 47.660156 C 166.371094 45.714844 152.40625 45.632812 138.429688 47.414062 C 131.550781 48.300781 124.769531 49.679688 118.089844 51.550781 C 111.5 53.378906 104.933594 55.390625 98.542969 57.800781 C 94.238281 59.425781 90.007812 61.238281 85.855469 63.234375 C 80.789062 65.359375 75.851562 67.746094 71.042969 70.394531 C 68.015625 72.046875 65.082031 73.851562 62.246094 75.8125 C 59.242188 77.898438 56.332031 80.074219 53.488281 82.34375 C 52.175781 83.386719 50.875 84.457031 49.59375 85.554688 C 50.40625 84.558594 51.246094 83.574219 52.105469 82.601562 Z M 118.03125 315.175781 C 110.632812 313.972656 103.398438 312.132812 96.324219 309.65625 C 95.539062 309.378906 94.761719 309.097656 93.980469 308.804688 L 92.816406 308.367188 L 92.226562 308.132812 C 90.488281 307.4375 88.769531 306.699219 87.070312 305.914062 C 84.074219 304.523438 81.132812 303.03125 78.25 301.433594 C 75.367188 299.835938 72.585938 298.144531 69.902344 296.355469 C 68.546875 295.460938 67.210938 294.539062 65.894531 293.589844 L 65.601562 293.382812 C 65.773438 293.5 65.027344 292.953125 64.898438 292.859375 C 64.1875 292.339844 63.488281 291.820312 62.808594 291.25 C 57.683594 287.261719 52.878906 282.921875 48.386719 278.226562 C 46.058594 275.796875 43.820312 273.277344 41.675781 270.664062 L 41.675781 270.699219 L 41.644531 270.660156 C 41.570312 270.574219 41.429688 270.398438 41.367188 270.316406 L 40.847656 269.691406 C 40.390625 269.113281 39.9375 268.535156 39.488281 267.949219 C 38.421875 266.5625 37.378906 265.140625 36.359375 263.691406 C 32.636719 258.410156 29.3125 252.894531 26.386719 247.136719 C 25.65625 245.703125 24.960938 244.257812 24.300781 242.796875 C 24.175781 242.53125 24.054688 242.273438 23.9375 242 C 24.488281 243.195312 23.875 241.851562 23.796875 241.671875 C 23.449219 240.867188 23.101562 240.0625 22.753906 239.253906 C 21.496094 236.222656 20.355469 233.148438 19.332031 230.035156 C 17.382812 224.019531 15.875 217.898438 14.8125 211.667969 C 17.335938 220.53125 20.628906 229.097656 24.691406 237.371094 C 28.753906 245.640625 33.523438 253.488281 39 260.902344 C 56.554688 284.582031 80.726562 303.007812 109.28125 312.367188 C 113.140625 313.632812 117.054688 314.71875 121.027344 315.625 C 120.019531 315.488281 119.023438 315.339844 118.03125 315.175781 Z M 262.160156 174.40625 C 262.117188 177.816406 261.980469 181.226562 261.746094 184.636719 C 261.621094 186.511719 261.464844 188.382812 261.289062 190.25 C 261.203125 191.097656 261.117188 191.949219 261.023438 192.800781 C 260.964844 193.320312 260.902344 193.816406 260.84375 194.324219 C 260.84375 194.449219 260.832031 194.550781 260.8125 194.621094 C 260.8125 194.683594 260.8125 194.777344 260.769531 194.902344 C 259.773438 202.535156 258.300781 210.074219 256.359375 217.519531 C 255.398438 221.152344 254.320312 224.746094 253.121094 228.308594 C 252.546875 230.007812 251.945312 231.695312 251.316406 233.378906 C 250.980469 234.257812 250.648438 235.132812 250.296875 235.984375 C 250.171875 236.300781 250.046875 236.617188 249.917969 236.9375 C 249.871094 237.066406 249.449219 238.070312 249.394531 238.257812 C 246.535156 245.003906 243.195312 251.503906 239.375 257.757812 C 237.636719 260.609375 235.785156 263.394531 233.824219 266.117188 C 233.304688 266.863281 232.75 267.597656 232.203125 268.332031 L 231.65625 269.058594 L 231.171875 269.730469 C 230.160156 271.019531 229.132812 272.296875 228.074219 273.550781 C 223.691406 278.769531 218.941406 283.632812 213.824219 288.136719 C 212.621094 289.175781 211.402344 290.210938 210.171875 291.230469 C 207.367188 292.914062 204.503906 294.496094 201.582031 295.96875 C 200.070312 296.730469 198.546875 297.460938 197 298.164062 L 195.28125 298.921875 L 194.527344 299.246094 L 192.816406 299.941406 C 186.492188 302.457031 180 304.417969 173.335938 305.820312 C 171.65625 306.167969 169.96875 306.480469 168.273438 306.761719 L 167.039062 306.957031 L 166.820312 306.992188 L 166.570312 307.023438 C 165.585938 307.148438 164.601562 307.277344 163.613281 307.382812 C 159.992188 307.777344 156.359375 308.007812 152.707031 308.066406 C 149.054688 308.125 145.414062 308.023438 141.785156 307.761719 C 140.089844 307.644531 138.398438 307.480469 136.714844 307.292969 L 135.871094 307.191406 L 134.882812 307.054688 C 133.816406 306.910156 132.75 306.746094 131.6875 306.570312 C 124.386719 305.371094 117.238281 303.5625 110.246094 301.148438 C 108.679688 300.628906 107.113281 300.027344 105.550781 299.4375 L 105.292969 299.34375 L 105.054688 299.246094 C 104.59375 299.058594 104.132812 298.871094 103.675781 298.679688 C 102.757812 298.296875 101.847656 297.902344 100.9375 297.5 C 97.609375 296.023438 94.351562 294.40625 91.164062 292.65625 C 88.089844 290.96875 85.09375 289.160156 82.171875 287.234375 C 80.78125 286.308594 79.390625 285.355469 78 284.375 L 77.085938 283.71875 L 76.925781 283.597656 C 76.195312 283.046875 75.464844 282.496094 74.738281 281.933594 C 69.3125 277.710938 64.226562 273.117188 59.476562 268.148438 C 57.160156 265.71875 54.933594 263.21875 52.789062 260.652344 L 52.390625 260.167969 C 52.867188 260.746094 52.058594 259.761719 51.957031 259.648438 C 51.476562 259.054688 51.003906 258.457031 50.542969 257.855469 C 49.417969 256.414062 48.328125 254.953125 47.265625 253.46875 C 43.367188 248.011719 39.851562 242.320312 36.71875 236.394531 C 35.9375 234.925781 35.179688 233.441406 34.445312 231.941406 C 34.097656 231.261719 33.769531 230.582031 33.460938 229.894531 C 33.265625 229.480469 33.074219 229.070312 32.886719 228.660156 C 32.851562 228.582031 32.65625 228.136719 32.5625 227.945312 C 31.179688 224.820312 29.886719 221.609375 28.71875 218.382812 C 26.1875 211.382812 24.191406 204.238281 22.730469 196.941406 C 22.402344 195.304688 22.101562 193.664062 21.828125 192.019531 C 21.769531 191.675781 21.71875 191.335938 21.660156 190.976562 C 21.660156 190.847656 21.53125 190.089844 21.515625 189.996094 C 21.375 189.007812 21.246094 188.011719 21.125 187.023438 C 20.683594 183.378906 20.375 179.734375 20.203125 176.082031 C 19.855469 168.757812 20.058594 161.445312 20.8125 154.148438 C 20.863281 153.625 20.914062 153.15625 20.972656 152.664062 L 21.089844 151.765625 C 21.175781 151.070312 21.269531 150.367188 21.375 149.683594 C 21.652344 147.792969 21.96875 145.910156 22.324219 144.03125 C 22.820312 141.402344 23.394531 138.789062 24.039062 136.1875 C 24.40625 135.363281 24.769531 134.539062 25.152344 133.71875 C 27.980469 127.59375 31.230469 121.703125 34.910156 116.046875 C 35.835938 114.636719 36.785156 113.25 37.761719 111.882812 C 38.195312 111.277344 38.628906 110.679688 39.074219 110.078125 L 39.851562 108.972656 L 40.304688 108.375 C 42.28125 105.828125 44.417969 103.433594 46.519531 100.988281 L 47.234375 100.066406 C 47 100.421875 47.058594 100.382812 47.390625 99.972656 C 47.714844 99.664062 47.996094 99.304688 48.300781 98.984375 C 48.820312 98.4375 49.3125 97.894531 49.828125 97.359375 C 51.011719 96.117188 52.21875 94.902344 53.449219 93.710938 C 55.855469 91.378906 58.34375 89.132812 60.910156 86.972656 C 65.832031 82.878906 70.960938 79.070312 76.304688 75.542969 C 87.390625 68.15625 99.289062 62.453125 111.992188 58.429688 C 117.597656 56.648438 123.289062 55.214844 129.070312 54.121094 C 130.460938 53.925781 131.851562 53.730469 133.242188 53.542969 C 136.285156 53.136719 139.335938 52.808594 142.402344 52.558594 C 145.007812 52.425781 147.589844 52.367188 150.167969 52.363281 C 150.417969 52.371094 150.625 52.277344 150.777344 52.074219 C 158.339844 51.820312 165.886719 52.066406 173.414062 52.808594 C 187.242188 54.191406 201.144531 57.570312 213.3125 64.269531 C 217.125 66.375 220.71875 68.804688 224.09375 71.5625 L 224.191406 71.660156 C 226.5 73.945312 228.707031 76.320312 230.816406 78.789062 C 231.234375 79.308594 231.652344 79.777344 232.0625 80.277344 C 232.140625 80.382812 232.933594 81.367188 233.0625 81.527344 C 234.128906 82.890625 235.164062 84.269531 236.167969 85.664062 C 239.855469 90.816406 243.144531 96.207031 246.035156 101.84375 C 246.757812 103.253906 247.453125 104.675781 248.121094 106.109375 C 248.394531 106.675781 248.644531 107.25 248.914062 107.824219 C 248.972656 107.941406 249.03125 108.078125 249.066406 108.15625 C 249.269531 108.621094 249.472656 109.082031 249.671875 109.546875 C 250.921875 112.476562 252.078125 115.445312 253.136719 118.449219 C 255.28125 124.5625 257.042969 130.78125 258.417969 137.109375 C 259.125 140.316406 259.707031 143.542969 260.238281 146.78125 C 260.238281 146.824219 260.238281 146.886719 260.265625 146.949219 L 260.40625 147.929688 C 260.503906 148.648438 260.605469 149.371094 260.699219 150.09375 C 260.921875 151.828125 261.117188 153.570312 261.289062 155.304688 C 261.921875 161.65625 262.214844 168.023438 262.160156 174.40625 Z M 280.136719 168.851562 C 279.980469 170.726562 279.789062 172.597656 279.574219 174.464844 C 279.574219 174.511719 279.449219 175.46875 279.449219 175.503906 C 279.421875 175.722656 279.390625 175.941406 279.367188 176.160156 C 279.230469 177.171875 279.085938 178.183594 278.933594 179.191406 C 278.371094 182.945312 277.691406 186.683594 276.894531 190.398438 C 275.367188 197.425781 273.492188 204.359375 271.269531 211.199219 C 270.160156 214.613281 268.941406 218 267.621094 221.351562 C 267.324219 222.109375 267.023438 222.871094 266.710938 223.625 C 266.671875 223.71875 266.347656 224.496094 266.332031 224.53125 C 266.199219 224.84375 266.066406 225.15625 265.933594 225.464844 C 265.753906 225.882812 265.570312 226.292969 265.382812 226.703125 C 268.535156 216.238281 270.75 205.578125 272.027344 194.722656 C 273.746094 180.8125 273.855469 166.890625 272.355469 152.953125 C 269.410156 126.289062 260.671875 99.703125 244.304688 77.890625 C 235.984375 66.714844 226.027344 57.253906 214.4375 49.507812 C 220.546875 52.609375 226.402344 56.136719 232.003906 60.082031 L 232.945312 60.753906 L 233.460938 61.128906 C 234.074219 61.59375 234.691406 62.050781 235.300781 62.519531 C 236.765625 63.644531 238.207031 64.800781 239.621094 65.984375 C 242.214844 68.152344 244.71875 70.410156 247.132812 72.753906 C 249.542969 75.101562 251.855469 77.546875 254.070312 80.085938 C 254.570312 80.660156 255.066406 81.242188 255.554688 81.824219 L 256.265625 82.683594 L 256.824219 83.371094 C 257.867188 84.683594 258.882812 86.015625 259.867188 87.367188 C 264.027344 92.992188 267.574219 98.976562 270.507812 105.320312 C 273.445312 111.664062 275.714844 118.238281 277.3125 125.042969 C 277.710938 126.691406 278.078125 128.34375 278.417969 130.003906 C 278.613281 131.003906 278.804688 132 278.980469 133.003906 L 279.152344 134.003906 C 279.210938 134.335938 279.261719 134.675781 279.3125 135.007812 C 279.3125 135.160156 279.355469 135.273438 279.371094 135.359375 C 279.894531 139.003906 280.253906 142.699219 280.472656 146.386719 C 280.894531 153.890625 280.78125 161.386719 280.136719 168.875 Z M 280.136719 168.851562 " fill-opacity="1" fill-rule="nonzero"/></g><path fill="#ff5757" d="M 41.367188 270.289062 L 41.660156 270.652344 Z M 41.367188 270.289062 " fill-opacity="1" fill-rule="nonzero"/><path fill="#ff5757" d="M 144.128906 113.765625 L 143.960938 113.601562 C 144.042969 113.832031 144.175781 114.03125 144.367188 114.1875 C 144.292969 114.0625 144.222656 113.9375 144.160156 113.820312 Z M 144.128906 113.765625 " fill-opacity="1" fill-rule="nonzero"/><path fill="#ff5757" d="M 190.808594 166.882812 C 190.34375 163.835938 188.203125 161.785156 185.277344 160.789062 C 181.039062 159.355469 175.578125 161.101562 171.222656 161.832031 L 165.289062 162.808594 L 162.785156 123.457031 C 162.210938 114.4375 160.660156 104.5 151.972656 99.40625 C 147.15625 96.59375 140.769531 96.359375 135.625 98.410156 C 130.269531 100.546875 126.238281 104.050781 123.144531 108.792969 C 120.460938 112.867188 118.859375 117.589844 117.179688 122.113281 C 115.441406 126.820312 113.757812 131.554688 112.121094 136.3125 C 108.917969 145.6875 105.972656 155.160156 103.28125 164.722656 C 102.46875 167.617188 101.675781 170.523438 100.90625 173.433594 L 92.285156 174.855469 C 84.378906 176.160156 76.480469 177.519531 68.585938 178.863281 C 67.933594 178.898438 67.300781 179.003906 66.675781 179.1875 L 66.546875 179.1875 C 65.800781 179.410156 65.105469 179.730469 64.453125 180.152344 C 63.800781 180.574219 63.21875 181.078125 62.710938 181.664062 C 62.203125 182.25 61.789062 182.898438 61.464844 183.601562 C 61.140625 184.304688 60.921875 185.042969 60.808594 185.808594 C 60.632812 187.03125 60.75 188.222656 61.160156 189.386719 C 61.570312 190.550781 62.222656 191.558594 63.125 192.402344 C 65.382812 194.542969 68.078125 194.804688 71.03125 194.332031 C 79.59375 192.964844 88.160156 191.589844 96.722656 190.203125 C 96.183594 192.558594 95.660156 194.914062 95.160156 197.273438 C 93.960938 202.804688 92.84375 208.363281 91.816406 213.941406 C 91.292969 216.730469 90.898438 219.53125 90.484375 222.339844 C 90.066406 225.5625 89.929688 228.796875 90.074219 232.042969 C 90.089844 232.457031 90.140625 232.867188 90.226562 233.269531 C 90.316406 233.671875 90.4375 234.066406 90.59375 234.445312 C 90.753906 234.828125 90.945312 235.195312 91.167969 235.542969 C 91.390625 235.890625 91.644531 236.214844 91.925781 236.515625 C 92.207031 236.820312 92.511719 237.09375 92.84375 237.34375 C 93.175781 237.589844 93.523438 237.804688 93.894531 237.992188 C 94.261719 238.175781 94.648438 238.328125 95.042969 238.445312 C 95.441406 238.5625 95.84375 238.640625 96.253906 238.6875 C 99.855469 239.113281 102.769531 236.957031 103.902344 233.683594 C 104.652344 231.511719 105.570312 229.347656 106.035156 227.097656 C 106.523438 224.703125 106.984375 222.308594 107.453125 219.914062 C 108.367188 215.222656 109.214844 210.5625 110.1875 205.898438 C 111.480469 199.699219 112.882812 193.523438 114.394531 187.367188 L 149.90625 181.578125 C 149.90625 181.953125 149.953125 182.328125 149.980469 182.703125 L 153.921875 244.960938 C 153.609375 246.3125 153.609375 247.660156 153.921875 249.011719 L 154.507812 251.582031 C 155.402344 255.5 159.859375 257.804688 163.6875 257.257812 C 167.515625 256.710938 171.027344 253.261719 170.769531 249.230469 C 169.277344 225.785156 167.789062 202.34375 166.300781 178.90625 L 173.378906 177.734375 L 179.925781 176.667969 C 182.53125 176.238281 185.140625 175.96875 187.273438 174.316406 C 189.757812 172.414062 191.300781 170.125 190.808594 166.882812 Z M 137.273438 167.40625 L 118.824219 170.453125 C 123.121094 155.03125 128.09375 139.789062 133.738281 124.730469 C 134.085938 123.785156 134.449219 122.839844 134.828125 121.898438 C 134.832031 121.886719 134.832031 121.875 134.828125 121.863281 C 134.808594 121.90625 134.789062 121.949219 134.769531 121.992188 L 134.847656 121.820312 C 134.90625 121.679688 135 121.476562 135.054688 121.347656 L 135.3125 120.777344 C 135.734375 119.882812 136.183594 118.996094 136.679688 118.136719 C 136.949219 117.664062 137.230469 117.195312 137.535156 116.734375 C 137.695312 116.492188 138.285156 115.796875 138.34375 115.71875 C 138.761719 115.273438 139.183594 114.828125 139.636719 114.40625 L 139.855469 114.195312 C 140.179688 114.007812 140.585938 113.835938 140.785156 113.730469 L 141.054688 113.578125 L 141.320312 113.453125 C 141.613281 113.371094 141.9375 113.304688 141.992188 113.28125 C 142.050781 113.261719 142.363281 113.214844 142.613281 113.171875 L 142.667969 113.171875 L 142.9375 113.121094 L 143.019531 113.121094 L 143.140625 113.152344 L 143.433594 113.152344 C 143.417969 113.171875 143.398438 113.191406 143.375 113.203125 L 143.605469 113.261719 L 143.671875 113.261719 L 143.699219 113.289062 L 143.804688 113.414062 C 143.851562 113.464844 143.902344 113.515625 143.953125 113.5625 C 143.9375 113.53125 143.925781 113.496094 143.917969 113.460938 L 144 113.511719 C 144.035156 113.5625 144.074219 113.636719 144.121094 113.730469 C 144.269531 113.859375 144.40625 114.003906 144.527344 114.15625 C 144.472656 114.199219 144.417969 114.199219 144.363281 114.15625 C 144.472656 114.34375 144.585938 114.527344 144.691406 114.679688 L 144.722656 114.726562 C 145.242188 116.328125 145.523438 117.933594 145.949219 119.550781 C 145.367188 117.335938 145.949219 119.816406 146 120.480469 C 146.09375 121.523438 146.15625 122.566406 146.222656 123.605469 C 147.105469 137.558594 147.992188 151.507812 148.875 165.457031 Z M 137.273438 167.40625 " fill-opacity="1" fill-rule="nonzero"/><path fill="#ff5757" d="M 142.6875 113.167969 C 142.886719 113.261719 143.210938 113.34375 143.382812 113.21875 L 143.144531 113.164062 Z M 142.6875 113.167969 " fill-opacity="1" fill-rule="nonzero"/><path fill="#ff5757" d="M 134.832031 121.863281 C 135.175781 121.128906 135.160156 121.136719 135.0625 121.339844 C 134.960938 121.542969 134.921875 121.660156 134.851562 121.816406 C 134.851562 121.832031 134.84375 121.847656 134.832031 121.863281 Z M 134.832031 121.863281 " fill-opacity="1" fill-rule="nonzero"/><path fill="#ff5757" d="M 232.789062 114.265625 C 230.8125 111.367188 227.664062 110.371094 224.234375 111 C 219.101562 111.945312 213.972656 112.894531 208.847656 113.84375 C 208.808594 113.324219 208.773438 112.804688 208.742188 112.28125 C 208.605469 110.199219 208.46875 108.125 208.332031 106.0625 C 208.148438 103.265625 208.273438 100.332031 206.644531 97.875 C 203.933594 93.804688 196.949219 93.226562 194.523438 98.03125 C 193.183594 100.683594 193.328125 103.058594 193.480469 105.886719 C 193.59375 107.96875 193.710938 110.042969 193.828125 112.105469 L 194.082031 116.617188 C 188.734375 117.617188 183.390625 118.628906 178.046875 119.652344 C 174.257812 120.382812 171.828125 125.089844 173.023438 128.539062 C 174.410156 132.535156 178.074219 134.140625 182.144531 133.429688 C 186.402344 132.691406 190.65625 131.941406 194.910156 131.1875 C 195.257812 136.894531 195.605469 142.605469 195.953125 148.320312 C 196.136719 151.445312 198.261719 154.632812 201.582031 155.324219 C 204.570312 155.949219 208.746094 154.886719 210.046875 151.84375 C 210.203125 151.464844 210.363281 151.089844 210.527344 150.710938 C 211.335938 148.8125 211.824219 147.105469 211.210938 145.042969 C 211.097656 144.660156 210.949219 144.292969 210.765625 143.9375 C 210.453125 138.792969 210.136719 133.652344 209.8125 128.515625 L 223.664062 125.960938 C 224.234375 126.09375 224.816406 126.160156 225.402344 126.160156 C 227.921875 126.128906 229.976562 124.769531 231.730469 123.164062 C 234.058594 121.039062 234.566406 116.875 232.789062 114.265625 Z M 232.789062 114.265625 " fill-opacity="1" fill-rule="nonzero"/><g fill="#5ce1e6" fill-opacity="1"><g transform="translate(1131.264501, 263.018561)"><g><path d="M 47.375 -178.453125 C 66.457031 -178.453125 78.320312 -178.367188 82.96875 -178.203125 C 114.238281 -177.085938 137.890625 -168.632812 153.921875 -152.84375 C 169.953125 -137.050781 177.96875 -116.003906 177.96875 -89.703125 C 177.96875 -72.066406 174.359375 -56.515625 167.140625 -43.046875 C 159.929688 -29.578125 149.191406 -19.035156 134.921875 -11.421875 C 120.648438 -3.804688 103.253906 0 82.734375 0 L 19.484375 0 C 17.078125 0 15.3125 -0.554688 14.1875 -1.671875 C 13.0625 -2.796875 12.5 -4.644531 12.5 -7.21875 L 12.5 -172.4375 C 12.5 -174.6875 12.976562 -176.25 13.9375 -177.125 C 14.90625 -178.007812 16.59375 -178.453125 19 -178.453125 Z M 69.5 -140.6875 C 68.695312 -140.6875 68.09375 -140.445312 67.6875 -139.96875 C 67.289062 -139.488281 67.09375 -138.609375 67.09375 -137.328125 L 67.09375 -41.359375 C 67.09375 -39.921875 67.332031 -38.960938 67.8125 -38.484375 C 68.300781 -38.003906 69.1875 -37.765625 70.46875 -37.765625 L 72.15625 -37.765625 C 88.019531 -37.765625 100.082031 -41.890625 108.34375 -50.140625 C 116.601562 -58.398438 120.734375 -71.828125 120.734375 -90.421875 C 120.734375 -106.460938 117.601562 -118.410156 111.34375 -126.265625 C 105.09375 -134.117188 95.957031 -138.609375 83.9375 -139.734375 Z M 69.5 -140.6875 "/></g></g></g><g fill="#5ce1e6" fill-opacity="1"><g transform="translate(1316.679371, 263.018561)"><g><path d="M 12.5 -172.921875 C 12.5 -176.609375 14.023438 -178.453125 17.078125 -178.453125 L 146.953125 -178.453125 C 149.835938 -178.453125 151.28125 -176.769531 151.28125 -173.40625 L 151.03125 -145.5 C 151.03125 -141.175781 148.945312 -139.015625 144.78125 -139.015625 L 72.625 -139.015625 C 68.9375 -139.015625 67.09375 -137.488281 67.09375 -134.4375 L 67.09375 -114 C 67.09375 -112.394531 67.492188 -111.148438 68.296875 -110.265625 C 69.097656 -109.390625 70.140625 -108.953125 71.421875 -108.953125 L 114.71875 -108.953125 C 118.082031 -108.953125 119.765625 -107.347656 119.765625 -104.140625 L 119.765625 -74.3125 C 119.765625 -71.582031 118.320312 -70.21875 115.4375 -70.21875 L 70.953125 -70.21875 C 69.828125 -70.21875 68.898438 -69.894531 68.171875 -69.25 C 67.453125 -68.613281 67.09375 -67.816406 67.09375 -66.859375 L 67.09375 -42.8125 C 67.09375 -41.53125 67.289062 -40.644531 67.6875 -40.15625 C 68.09375 -39.675781 68.859375 -39.4375 69.984375 -39.4375 L 148.140625 -39.4375 C 151.671875 -39.4375 153.4375 -37.914062 153.4375 -34.875 L 153.4375 -5.296875 C 153.4375 -3.691406 152.953125 -2.40625 151.984375 -1.4375 C 151.023438 -0.476562 149.585938 0 147.671875 0 L 19 0 C 16.59375 0 14.90625 -0.476562 13.9375 -1.4375 C 12.976562 -2.40625 12.5 -3.929688 12.5 -6.015625 Z M 12.5 -172.921875 "/></g></g></g><g fill="#5ce1e6" fill-opacity="1"><g transform="translate(1478.045624, 263.018561)"><g><path d="M 92.59375 -180.859375 C 105.894531 -180.859375 117.914062 -178.492188 128.65625 -173.765625 C 139.40625 -169.035156 148.226562 -162.5 155.125 -154.15625 C 162.019531 -145.820312 166.507812 -136.285156 168.59375 -125.546875 C 169.070312 -123.617188 169.3125 -122.09375 169.3125 -120.96875 C 169.3125 -119.53125 169.03125 -118.566406 168.46875 -118.078125 C 167.90625 -117.597656 166.90625 -117.28125 165.46875 -117.125 L 123.375 -114.484375 C 121.769531 -114.484375 120.726562 -114.757812 120.25 -115.3125 C 119.769531 -115.875 119.289062 -117.117188 118.8125 -119.046875 C 117.363281 -126.742188 114.710938 -132.796875 110.859375 -137.203125 C 107.015625 -141.609375 101.40625 -143.8125 94.03125 -143.8125 C 84.570312 -143.8125 77.273438 -139.644531 72.140625 -131.3125 C 67.015625 -122.976562 64.453125 -109.429688 64.453125 -90.671875 C 64.453125 -71.265625 66.816406 -57.472656 71.546875 -49.296875 C 76.273438 -41.117188 83.691406 -37.03125 93.796875 -37.03125 C 102.296875 -37.03125 109.550781 -39.195312 115.5625 -43.53125 C 121.570312 -47.863281 126.582031 -55.078125 130.59375 -65.171875 C 131.070312 -66.617188 132.4375 -67.34375 134.6875 -67.34375 C 135.800781 -67.34375 136.679688 -67.257812 137.328125 -67.09375 L 167.390625 -61.09375 C 169.796875 -60.289062 171 -58.445312 171 -55.5625 C 171 -51.070312 168.234375 -44.132812 162.703125 -34.75 C 157.171875 -25.375 148.507812 -16.835938 136.71875 -9.140625 C 124.9375 -1.441406 110.066406 2.40625 92.109375 2.40625 C 75.117188 2.40625 60.207031 -1.640625 47.375 -9.734375 C 34.550781 -17.835938 24.648438 -28.984375 17.671875 -43.171875 C 10.703125 -57.359375 7.21875 -73.507812 7.21875 -91.625 C 7.21875 -109.582031 10.703125 -125.296875 17.671875 -138.765625 C 24.648438 -152.234375 34.59375 -162.613281 47.5 -169.90625 C 60.40625 -177.207031 75.4375 -180.859375 92.59375 -180.859375 Z M 92.59375 -180.859375 "/></g></g></g><g fill="#5ce1e6" fill-opacity="1"><g transform="translate(1655.284007, 263.018561)"><g><path d="M 179.171875 -7.453125 C 179.816406 -6.171875 180.140625 -4.890625 180.140625 -3.609375 C 180.140625 -1.203125 178.695312 0 175.8125 0 L 128.90625 0 C 124.582031 0 121.695312 -1.601562 120.25 -4.8125 L 90.90625 -71.671875 C 90.269531 -72.628906 89.628906 -73.109375 88.984375 -73.109375 C 88.179688 -73.109375 87.0625 -72.226562 85.625 -70.46875 L 68.546875 -48.578125 C 67.578125 -47.453125 67.09375 -45.691406 67.09375 -43.296875 L 67.09375 -6.96875 C 67.09375 -4.40625 66.453125 -2.601562 65.171875 -1.5625 C 63.890625 -0.519531 61.882812 0 59.15625 0 L 19 0 C 16.59375 0 14.90625 -0.476562 13.9375 -1.4375 C 12.976562 -2.40625 12.5 -3.929688 12.5 -6.015625 L 12.5 -172.921875 C 12.5 -174.679688 12.898438 -176.039062 13.703125 -177 C 14.503906 -177.96875 15.628906 -178.453125 17.078125 -178.453125 L 62.765625 -178.453125 C 65.648438 -178.453125 67.09375 -176.769531 67.09375 -173.40625 L 67.09375 -112.546875 C 67.09375 -110.628906 67.492188 -109.671875 68.296875 -109.671875 C 68.941406 -109.671875 69.742188 -110.226562 70.703125 -111.34375 L 114.953125 -173.40625 C 116.398438 -175.320312 117.804688 -176.640625 119.171875 -177.359375 C 120.535156 -178.085938 122.578125 -178.453125 125.296875 -178.453125 L 161.859375 -178.453125 C 163.785156 -178.453125 165.304688 -178.085938 166.421875 -177.359375 C 167.546875 -176.640625 168.109375 -175.640625 168.109375 -174.359375 C 168.109375 -173.234375 167.707031 -172.269531 166.90625 -171.46875 L 127.46875 -123.140625 C 126.34375 -121.859375 125.78125 -120.492188 125.78125 -119.046875 C 125.78125 -117.921875 126.101562 -116.71875 126.75 -115.4375 Z M 179.171875 -7.453125 "/></g></g></g><g fill="#ffffff" fill-opacity="1"><g transform="translate(343.009203, 260.295923)"><g><path d="M 12.109375 -167.421875 C 12.109375 -170.984375 13.582031 -172.765625 16.53125 -172.765625 L 142.265625 -172.765625 C 145.054688 -172.765625 146.453125 -171.132812 146.453125 -167.875 L 146.21875 -140.875 C 146.21875 -136.675781 144.203125 -134.578125 140.171875 -134.578125 L 70.3125 -134.578125 C 66.75 -134.578125 64.96875 -133.101562 64.96875 -130.15625 L 64.96875 -110.375 C 64.96875 -108.820312 65.351562 -107.617188 66.125 -106.765625 C 66.90625 -105.910156 67.914062 -105.484375 69.15625 -105.484375 L 111.0625 -105.484375 C 114.320312 -105.484375 115.953125 -103.929688 115.953125 -100.828125 L 115.953125 -71.953125 C 115.953125 -69.304688 114.554688 -67.984375 111.765625 -67.984375 L 68.6875 -67.984375 C 67.601562 -67.984375 66.710938 -67.671875 66.015625 -67.046875 C 65.316406 -66.429688 64.96875 -65.660156 64.96875 -64.734375 L 64.96875 -41.453125 C 64.96875 -40.203125 65.160156 -39.34375 65.546875 -38.875 C 65.929688 -38.414062 66.664062 -38.1875 67.75 -38.1875 L 143.4375 -38.1875 C 146.84375 -38.1875 148.546875 -36.710938 148.546875 -33.765625 L 148.546875 -5.125 C 148.546875 -3.570312 148.082031 -2.328125 147.15625 -1.390625 C 146.226562 -0.460938 144.832031 0 142.96875 0 L 18.390625 0 C 16.066406 0 14.4375 -0.460938 13.5 -1.390625 C 12.570312 -2.328125 12.109375 -3.804688 12.109375 -5.828125 Z M 12.109375 -167.421875 "/></g></g></g><g fill="#ffffff" fill-opacity="1"><g transform="translate(499.243996, 260.295923)"><g><path d="M 167.421875 -11.875 C 169.585938 -8.613281 170.671875 -5.972656 170.671875 -3.953125 C 170.671875 -1.316406 168.5 0 164.15625 0 L 122.25 0 C 117.4375 0 114.175781 -1.550781 112.46875 -4.65625 L 86.84375 -48.4375 C 85.445312 -50.757812 84.363281 -51.921875 83.59375 -51.921875 C 82.65625 -51.921875 81.566406 -50.835938 80.328125 -48.671875 L 55.1875 -4.65625 C 53.476562 -1.550781 50.140625 0 45.171875 0 L 12.109375 0 C 7.765625 0 5.59375 -1.238281 5.59375 -3.71875 C 5.59375 -5.425781 6.753906 -8.144531 9.078125 -11.875 L 54.953125 -82.890625 C 56.035156 -84.441406 56.578125 -85.835938 56.578125 -87.078125 C 56.578125 -88.171875 56.035156 -89.570312 54.953125 -91.28125 L 7.921875 -164.625 C 7.140625 -165.550781 6.75 -166.867188 6.75 -168.578125 C 6.75 -171.367188 8.378906 -172.765625 11.640625 -172.765625 L 55.65625 -172.765625 C 58.132812 -172.765625 60.070312 -172.375 61.46875 -171.59375 C 62.863281 -170.820312 64.03125 -169.582031 64.96875 -167.875 L 86.15625 -130.390625 C 86.925781 -129.148438 87.78125 -128.53125 88.71875 -128.53125 C 89.644531 -128.53125 90.5 -129.148438 91.28125 -130.390625 L 112.46875 -167.875 C 113.394531 -169.582031 114.515625 -170.820312 115.828125 -171.59375 C 117.148438 -172.375 119.054688 -172.765625 121.546875 -172.765625 L 157.640625 -172.765625 C 160.742188 -172.765625 162.296875 -171.601562 162.296875 -169.28125 C 162.296875 -168.1875 161.75 -166.789062 160.65625 -165.09375 L 116.65625 -97.5625 C 115.71875 -96.164062 115.25 -94.925781 115.25 -93.84375 C 115.25 -92.75 115.875 -91.191406 117.125 -89.171875 Z M 167.421875 -11.875 "/></g></g></g><g fill="#ffffff" fill-opacity="1"><g transform="translate(675.270098, 260.295923)"><g><path d="M 10.015625 0 C 8.773438 0 7.765625 -0.425781 6.984375 -1.28125 C 6.210938 -2.132812 5.828125 -3.335938 5.828125 -4.890625 C 5.828125 -5.972656 6.054688 -7.210938 6.515625 -8.609375 L 62.875 -167.421875 C 63.644531 -169.429688 64.492188 -170.820312 65.421875 -171.59375 C 66.359375 -172.375 67.835938 -172.765625 69.859375 -172.765625 L 115.71875 -172.765625 C 117.582031 -172.765625 119.25 -172.179688 120.71875 -171.015625 C 122.195312 -169.859375 123.328125 -168.347656 124.109375 -166.484375 L 179.984375 -7.921875 C 180.296875 -6.671875 180.453125 -5.738281 180.453125 -5.125 C 180.453125 -3.726562 180.140625 -2.523438 179.515625 -1.515625 C 178.898438 -0.503906 177.972656 0 176.734375 0 L 131.09375 0 C 128.445312 0 126.738281 -1.316406 125.96875 -3.953125 L 116.890625 -30.734375 C 116.421875 -31.816406 115.992188 -32.550781 115.609375 -32.9375 C 115.222656 -33.332031 114.484375 -33.53125 113.390625 -33.53125 L 64.03125 -33.53125 C 62.164062 -33.53125 61.003906 -32.675781 60.546875 -30.96875 L 51 -3.5 C 50.0625 -1.164062 48.195312 0 45.40625 0 Z M 101.75 -73.109375 C 103.457031 -73.109375 104.3125 -73.882812 104.3125 -75.4375 C 104.3125 -75.75 104.15625 -76.523438 103.84375 -77.765625 L 89.875 -117.59375 C 89.5625 -118.363281 89.09375 -118.75 88.46875 -118.75 C 87.851562 -118.75 87.390625 -118.363281 87.078125 -117.59375 L 72.875 -78 C 72.570312 -77.382812 72.421875 -76.609375 72.421875 -75.671875 C 72.421875 -73.960938 73.347656 -73.109375 75.203125 -73.109375 Z M 101.75 -73.109375 "/></g></g></g><g fill="#ffffff" fill-opacity="1"><g transform="translate(861.308224, 260.295923)"><g><path d="M 18.15625 0 C 16.300781 0 14.828125 -0.582031 13.734375 -1.75 C 12.648438 -2.914062 12.109375 -4.503906 12.109375 -6.515625 L 12.109375 -167.421875 C 12.109375 -169.273438 12.492188 -170.628906 13.265625 -171.484375 C 14.046875 -172.335938 15.289062 -172.765625 17 -172.765625 L 82.1875 -172.765625 C 84.207031 -172.765625 85.644531 -172.492188 86.5 -171.953125 C 87.351562 -171.410156 88.09375 -170.285156 88.71875 -168.578125 L 112.921875 -94.53125 C 113.390625 -93.289062 113.9375 -92.671875 114.5625 -92.671875 C 115.019531 -92.671875 115.484375 -93.289062 115.953125 -94.53125 L 137.609375 -166.015625 C 138.847656 -170.515625 140.941406 -172.765625 143.890625 -172.765625 L 211.1875 -172.765625 C 213.976562 -172.765625 215.375 -171.132812 215.375 -167.875 L 215.375 -6.75 C 215.375 -4.269531 214.789062 -2.523438 213.625 -1.515625 C 212.46875 -0.503906 210.566406 0 207.921875 0 L 168.578125 0 C 166.253906 0 164.664062 -0.460938 163.8125 -1.390625 C 162.957031 -2.328125 162.53125 -3.804688 162.53125 -5.828125 L 162.53125 -110.375 C 162.53125 -111.613281 162.21875 -112.234375 161.59375 -112.234375 C 160.8125 -112.234375 160.191406 -111.535156 159.734375 -110.140625 L 126.203125 -4.1875 C 125.117188 -1.394531 123.253906 0 120.609375 0 L 96.171875 0 C 93.367188 0 91.503906 -1.394531 90.578125 -4.1875 L 57.046875 -108.265625 C 56.578125 -109.816406 56.035156 -110.59375 55.421875 -110.59375 C 54.640625 -110.59375 54.25 -109.742188 54.25 -108.046875 L 54.25 -5.125 C 54.25 -3.101562 53.9375 -1.742188 53.3125 -1.046875 C 52.695312 -0.347656 51.300781 0 49.125 0 Z M 18.15625 0 "/></g></g></g></svg>